<?xml version="1.0" encoding="utf-8" standalone="no"?>
<!DOCTYPE svg PUBLIC "-//W3C//DTD SVG 1.1//EN"
  "http://www.w3.org/Graphics/SVG/1.1/DTD/svg11.dtd">
<!-- Created with matplotlib (https://matplotlib.org/) -->
<svg height="432pt" version="1.1" viewBox="0 0 504 432" width="504pt" xmlns="http://www.w3.org/2000/svg" xmlns:xlink="http://www.w3.org/1999/xlink">
 <metadata>
  <rdf:RDF xmlns:cc="http://creativecommons.org/ns#" xmlns:dc="http://purl.org/dc/elements/1.1/" xmlns:rdf="http://www.w3.org/1999/02/22-rdf-syntax-ns#">
   <cc:Work>
    <dc:type rdf:resource="http://purl.org/dc/dcmitype/StillImage"/>
    <dc:date>2022-08-05T08:48:10.396994</dc:date>
    <dc:format>image/svg+xml</dc:format>
    <dc:creator>
     <cc:Agent>
      <dc:title>Matplotlib v3.3.4, https://matplotlib.org/</dc:title>
     </cc:Agent>
    </dc:creator>
   </cc:Work>
  </rdf:RDF>
 </metadata>
 <defs>
  <style type="text/css">*{stroke-linecap:butt;stroke-linejoin:round;}</style>
 </defs>
 <g id="figure_1">
  <g id="patch_1">
   <path d="M 0 432 
L 504 432 
L 504 0 
L 0 0 
z
" style="fill:none;"/>
  </g>
  <g id="axes_1">
   <g id="patch_2">
    <path d="M 47.8 387.2 
L 482.0125 387.2 
L 482.0125 28.8 
L 47.8 28.8 
z
" style="fill:#ffffff;"/>
   </g>
   <g id="matplotlib.axis_1">
    <g id="xtick_1">
     <g id="line2d_1">
      <defs>
       <path d="M 0 0 
L 0 3.5 
" id="mbf168e8b51" style="stroke:#000000;stroke-width:0.8;"/>
      </defs>
      <g>
       <use style="stroke:#000000;stroke-width:0.8;" x="47.8" xlink:href="#mbf168e8b51" y="387.2"/>
      </g>
     </g>
     <g id="text_1">
      <!-- 0.00 -->
      <g transform="translate(36.667188 401.798437)scale(0.1 -0.1)">
       <defs>
        <path d="M 31.78125 66.40625 
Q 24.171875 66.40625 20.328125 58.90625 
Q 16.5 51.421875 16.5 36.375 
Q 16.5 21.390625 20.328125 13.890625 
Q 24.171875 6.390625 31.78125 6.390625 
Q 39.453125 6.390625 43.28125 13.890625 
Q 47.125 21.390625 47.125 36.375 
Q 47.125 51.421875 43.28125 58.90625 
Q 39.453125 66.40625 31.78125 66.40625 
z
M 31.78125 74.21875 
Q 44.046875 74.21875 50.515625 64.515625 
Q 56.984375 54.828125 56.984375 36.375 
Q 56.984375 17.96875 50.515625 8.265625 
Q 44.046875 -1.421875 31.78125 -1.421875 
Q 19.53125 -1.421875 13.0625 8.265625 
Q 6.59375 17.96875 6.59375 36.375 
Q 6.59375 54.828125 13.0625 64.515625 
Q 19.53125 74.21875 31.78125 74.21875 
z
" id="DejaVuSans-48"/>
        <path d="M 10.6875 12.40625 
L 21 12.40625 
L 21 0 
L 10.6875 0 
z
" id="DejaVuSans-46"/>
       </defs>
       <use xlink:href="#DejaVuSans-48"/>
       <use x="63.623047" xlink:href="#DejaVuSans-46"/>
       <use x="95.410156" xlink:href="#DejaVuSans-48"/>
       <use x="159.033203" xlink:href="#DejaVuSans-48"/>
      </g>
     </g>
    </g>
    <g id="xtick_2">
     <g id="line2d_2">
      <g>
       <use style="stroke:#000000;stroke-width:0.8;" x="120.16875" xlink:href="#mbf168e8b51" y="387.2"/>
      </g>
     </g>
     <g id="text_2">
      <!-- 0.05 -->
      <g transform="translate(109.035937 401.798437)scale(0.1 -0.1)">
       <defs>
        <path d="M 10.796875 72.90625 
L 49.515625 72.90625 
L 49.515625 64.59375 
L 19.828125 64.59375 
L 19.828125 46.734375 
Q 21.96875 47.46875 24.109375 47.828125 
Q 26.265625 48.1875 28.421875 48.1875 
Q 40.625 48.1875 47.75 41.5 
Q 54.890625 34.8125 54.890625 23.390625 
Q 54.890625 11.625 47.5625 5.09375 
Q 40.234375 -1.421875 26.90625 -1.421875 
Q 22.3125 -1.421875 17.546875 -0.640625 
Q 12.796875 0.140625 7.71875 1.703125 
L 7.71875 11.625 
Q 12.109375 9.234375 16.796875 8.0625 
Q 21.484375 6.890625 26.703125 6.890625 
Q 35.15625 6.890625 40.078125 11.328125 
Q 45.015625 15.765625 45.015625 23.390625 
Q 45.015625 31 40.078125 35.4375 
Q 35.15625 39.890625 26.703125 39.890625 
Q 22.75 39.890625 18.8125 39.015625 
Q 14.890625 38.140625 10.796875 36.28125 
z
" id="DejaVuSans-53"/>
       </defs>
       <use xlink:href="#DejaVuSans-48"/>
       <use x="63.623047" xlink:href="#DejaVuSans-46"/>
       <use x="95.410156" xlink:href="#DejaVuSans-48"/>
       <use x="159.033203" xlink:href="#DejaVuSans-53"/>
      </g>
     </g>
    </g>
    <g id="xtick_3">
     <g id="line2d_3">
      <g>
       <use style="stroke:#000000;stroke-width:0.8;" x="192.5375" xlink:href="#mbf168e8b51" y="387.2"/>
      </g>
     </g>
     <g id="text_3">
      <!-- 0.10 -->
      <g transform="translate(181.404687 401.798437)scale(0.1 -0.1)">
       <defs>
        <path d="M 12.40625 8.296875 
L 28.515625 8.296875 
L 28.515625 63.921875 
L 10.984375 60.40625 
L 10.984375 69.390625 
L 28.421875 72.90625 
L 38.28125 72.90625 
L 38.28125 8.296875 
L 54.390625 8.296875 
L 54.390625 0 
L 12.40625 0 
z
" id="DejaVuSans-49"/>
       </defs>
       <use xlink:href="#DejaVuSans-48"/>
       <use x="63.623047" xlink:href="#DejaVuSans-46"/>
       <use x="95.410156" xlink:href="#DejaVuSans-49"/>
       <use x="159.033203" xlink:href="#DejaVuSans-48"/>
      </g>
     </g>
    </g>
    <g id="xtick_4">
     <g id="line2d_4">
      <g>
       <use style="stroke:#000000;stroke-width:0.8;" x="264.90625" xlink:href="#mbf168e8b51" y="387.2"/>
      </g>
     </g>
     <g id="text_4">
      <!-- 0.15 -->
      <g transform="translate(253.773437 401.798437)scale(0.1 -0.1)">
       <use xlink:href="#DejaVuSans-48"/>
       <use x="63.623047" xlink:href="#DejaVuSans-46"/>
       <use x="95.410156" xlink:href="#DejaVuSans-49"/>
       <use x="159.033203" xlink:href="#DejaVuSans-53"/>
      </g>
     </g>
    </g>
    <g id="xtick_5">
     <g id="line2d_5">
      <g>
       <use style="stroke:#000000;stroke-width:0.8;" x="337.275" xlink:href="#mbf168e8b51" y="387.2"/>
      </g>
     </g>
     <g id="text_5">
      <!-- 0.20 -->
      <g transform="translate(326.142187 401.798437)scale(0.1 -0.1)">
       <defs>
        <path d="M 19.1875 8.296875 
L 53.609375 8.296875 
L 53.609375 0 
L 7.328125 0 
L 7.328125 8.296875 
Q 12.9375 14.109375 22.625 23.890625 
Q 32.328125 33.6875 34.8125 36.53125 
Q 39.546875 41.84375 41.421875 45.53125 
Q 43.3125 49.21875 43.3125 52.78125 
Q 43.3125 58.59375 39.234375 62.25 
Q 35.15625 65.921875 28.609375 65.921875 
Q 23.96875 65.921875 18.8125 64.3125 
Q 13.671875 62.703125 7.8125 59.421875 
L 7.8125 69.390625 
Q 13.765625 71.78125 18.9375 73 
Q 24.125 74.21875 28.421875 74.21875 
Q 39.75 74.21875 46.484375 68.546875 
Q 53.21875 62.890625 53.21875 53.421875 
Q 53.21875 48.921875 51.53125 44.890625 
Q 49.859375 40.875 45.40625 35.40625 
Q 44.1875 33.984375 37.640625 27.21875 
Q 31.109375 20.453125 19.1875 8.296875 
z
" id="DejaVuSans-50"/>
       </defs>
       <use xlink:href="#DejaVuSans-48"/>
       <use x="63.623047" xlink:href="#DejaVuSans-46"/>
       <use x="95.410156" xlink:href="#DejaVuSans-50"/>
       <use x="159.033203" xlink:href="#DejaVuSans-48"/>
      </g>
     </g>
    </g>
    <g id="xtick_6">
     <g id="line2d_6">
      <g>
       <use style="stroke:#000000;stroke-width:0.8;" x="409.64375" xlink:href="#mbf168e8b51" y="387.2"/>
      </g>
     </g>
     <g id="text_6">
      <!-- 0.25 -->
      <g transform="translate(398.510937 401.798437)scale(0.1 -0.1)">
       <use xlink:href="#DejaVuSans-48"/>
       <use x="63.623047" xlink:href="#DejaVuSans-46"/>
       <use x="95.410156" xlink:href="#DejaVuSans-50"/>
       <use x="159.033203" xlink:href="#DejaVuSans-53"/>
      </g>
     </g>
    </g>
    <g id="xtick_7">
     <g id="line2d_7">
      <g>
       <use style="stroke:#000000;stroke-width:0.8;" x="482.0125" xlink:href="#mbf168e8b51" y="387.2"/>
      </g>
     </g>
     <g id="text_7">
      <!-- 0.30 -->
      <g transform="translate(470.879687 401.798437)scale(0.1 -0.1)">
       <defs>
        <path d="M 40.578125 39.3125 
Q 47.65625 37.796875 51.625 33 
Q 55.609375 28.21875 55.609375 21.1875 
Q 55.609375 10.40625 48.1875 4.484375 
Q 40.765625 -1.421875 27.09375 -1.421875 
Q 22.515625 -1.421875 17.65625 -0.515625 
Q 12.796875 0.390625 7.625 2.203125 
L 7.625 11.71875 
Q 11.71875 9.328125 16.59375 8.109375 
Q 21.484375 6.890625 26.8125 6.890625 
Q 36.078125 6.890625 40.9375 10.546875 
Q 45.796875 14.203125 45.796875 21.1875 
Q 45.796875 27.640625 41.28125 31.265625 
Q 36.765625 34.90625 28.71875 34.90625 
L 20.21875 34.90625 
L 20.21875 43.015625 
L 29.109375 43.015625 
Q 36.375 43.015625 40.234375 45.921875 
Q 44.09375 48.828125 44.09375 54.296875 
Q 44.09375 59.90625 40.109375 62.90625 
Q 36.140625 65.921875 28.71875 65.921875 
Q 24.65625 65.921875 20.015625 65.03125 
Q 15.375 64.15625 9.8125 62.3125 
L 9.8125 71.09375 
Q 15.4375 72.65625 20.34375 73.4375 
Q 25.25 74.21875 29.59375 74.21875 
Q 40.828125 74.21875 47.359375 69.109375 
Q 53.90625 64.015625 53.90625 55.328125 
Q 53.90625 49.265625 50.4375 45.09375 
Q 46.96875 40.921875 40.578125 39.3125 
z
" id="DejaVuSans-51"/>
       </defs>
       <use xlink:href="#DejaVuSans-48"/>
       <use x="63.623047" xlink:href="#DejaVuSans-46"/>
       <use x="95.410156" xlink:href="#DejaVuSans-51"/>
       <use x="159.033203" xlink:href="#DejaVuSans-48"/>
      </g>
     </g>
    </g>
    <g id="text_8">
     <!-- $\omega a/2\pi c$ -->
     <g transform="translate(247.20625 415.476562)scale(0.1 -0.1)">
      <defs>
       <path d="M 21.390625 -1.421875 
Q 1.125 -1.421875 6.78125 27.59375 
Q 8.984375 39.0625 19.625 54.6875 
L 29.296875 54.6875 
Q 19.234375 39.0625 17 27.34375 
Q 12.796875 6.203125 23.734375 6.203125 
Q 33.84375 6.203125 38.71875 32.46875 
L 47.015625 32.46875 
Q 41.703125 6.0625 51.8125 6.203125 
Q 62.703125 6.296875 66.796875 27.34375 
Q 69.046875 39.0625 65.140625 54.6875 
L 74.8125 54.6875 
Q 79.296875 39.0625 77.09375 27.59375 
Q 71.53125 -1.46875 51.21875 -1.421875 
Q 37.9375 -1.375 39.109375 13.1875 
Q 34.28125 -1.421875 21.390625 -1.421875 
z
" id="DejaVuSans-Oblique-969"/>
       <path d="M 53.71875 31.203125 
L 47.609375 0 
L 38.625 0 
L 40.28125 8.296875 
Q 36.328125 3.421875 31.265625 1 
Q 26.21875 -1.421875 20.015625 -1.421875 
Q 13.03125 -1.421875 8.5625 2.84375 
Q 4.109375 7.125 4.109375 13.8125 
Q 4.109375 23.390625 11.75 28.953125 
Q 19.390625 34.515625 32.8125 34.515625 
L 45.3125 34.515625 
L 45.796875 36.921875 
Q 45.90625 37.3125 45.953125 37.765625 
Q 46 38.234375 46 39.203125 
Q 46 43.5625 42.453125 45.96875 
Q 38.921875 48.390625 32.515625 48.390625 
Q 28.125 48.390625 23.5 47.265625 
Q 18.890625 46.140625 14.015625 43.890625 
L 15.578125 52.203125 
Q 20.65625 54.109375 25.515625 55.046875 
Q 30.375 56 34.90625 56 
Q 44.578125 56 49.625 51.796875 
Q 54.6875 47.609375 54.6875 39.59375 
Q 54.6875 37.984375 54.4375 35.8125 
Q 54.203125 33.640625 53.71875 31.203125 
z
M 44 27.484375 
L 35.015625 27.484375 
Q 23.96875 27.484375 18.671875 24.53125 
Q 13.375 21.578125 13.375 15.375 
Q 13.375 11.078125 16.078125 8.640625 
Q 18.796875 6.203125 23.578125 6.203125 
Q 30.90625 6.203125 36.375 11.453125 
Q 41.84375 16.703125 43.609375 25.484375 
z
" id="DejaVuSans-Oblique-97"/>
       <path d="M 25.390625 72.90625 
L 33.6875 72.90625 
L 8.296875 -9.28125 
L 0 -9.28125 
z
" id="DejaVuSans-47"/>
       <path d="M 9.125 54.6875 
L 61.53125 54.6875 
L 59.765625 45.703125 
L 52.875 45.703125 
L 46.34375 12.109375 
Q 45.65625 8.59375 46.578125 7.03125 
Q 47.46875 5.515625 50.140625 5.515625 
Q 50.875 5.515625 51.953125 5.671875 
Q 53.078125 5.765625 53.421875 5.8125 
L 52.15625 -0.6875 
Q 50.34375 -1.3125 48.484375 -1.609375 
Q 46.578125 -1.90625 44.78125 -1.90625 
Q 38.921875 -1.90625 37.3125 1.265625 
Q 35.6875 4.5 37.359375 13.09375 
L 43.703125 45.703125 
L 23.53125 45.703125 
L 14.65625 0 
L 5.46875 0 
L 14.359375 45.703125 
L 7.375 45.703125 
z
" id="DejaVuSans-Oblique-960"/>
       <path d="M 53.609375 52.59375 
L 51.8125 43.703125 
Q 48.578125 46.046875 44.9375 47.21875 
Q 41.3125 48.390625 37.40625 48.390625 
Q 33.109375 48.390625 29.21875 46.875 
Q 25.34375 45.359375 22.703125 42.578125 
Q 18.5 38.328125 16.203125 32.609375 
Q 13.921875 26.90625 13.921875 20.796875 
Q 13.921875 13.421875 17.609375 9.8125 
Q 21.296875 6.203125 28.8125 6.203125 
Q 32.515625 6.203125 36.6875 7.328125 
Q 40.875 8.453125 45.40625 10.6875 
L 43.703125 1.8125 
Q 39.796875 0.203125 35.671875 -0.609375 
Q 31.546875 -1.421875 27.203125 -1.421875 
Q 16.3125 -1.421875 10.453125 4.015625 
Q 4.59375 9.46875 4.59375 19.578125 
Q 4.59375 28.078125 7.640625 35.234375 
Q 10.6875 42.390625 16.703125 48.09375 
Q 20.796875 52 26.3125 54 
Q 31.84375 56 38.375 56 
Q 42.1875 56 45.9375 55.140625 
Q 49.703125 54.296875 53.609375 52.59375 
z
" id="DejaVuSans-Oblique-99"/>
      </defs>
      <use transform="translate(0 0.78125)" xlink:href="#DejaVuSans-Oblique-969"/>
      <use transform="translate(83.740234 0.78125)" xlink:href="#DejaVuSans-Oblique-97"/>
      <use transform="translate(145.019531 0.78125)" xlink:href="#DejaVuSans-47"/>
      <use transform="translate(175.085938 0.78125)" xlink:href="#DejaVuSans-50"/>
      <use transform="translate(238.708984 0.78125)" xlink:href="#DejaVuSans-Oblique-960"/>
      <use transform="translate(298.914062 0.78125)" xlink:href="#DejaVuSans-Oblique-99"/>
     </g>
    </g>
   </g>
   <g id="matplotlib.axis_2">
    <g id="ytick_1">
     <g id="line2d_8">
      <defs>
       <path d="M 0 0 
L -3.5 0 
" id="m8038999fdf" style="stroke:#000000;stroke-width:0.8;"/>
      </defs>
      <g>
       <use style="stroke:#000000;stroke-width:0.8;" x="47.8" xlink:href="#m8038999fdf" y="387.2"/>
      </g>
     </g>
     <g id="text_9">
      <!-- 0.0 -->
      <g transform="translate(24.896875 390.999219)scale(0.1 -0.1)">
       <use xlink:href="#DejaVuSans-48"/>
       <use x="63.623047" xlink:href="#DejaVuSans-46"/>
       <use x="95.410156" xlink:href="#DejaVuSans-48"/>
      </g>
     </g>
    </g>
    <g id="ytick_2">
     <g id="line2d_9">
      <g>
       <use style="stroke:#000000;stroke-width:0.8;" x="47.8" xlink:href="#m8038999fdf" y="316.229703"/>
      </g>
     </g>
     <g id="text_10">
      <!-- 0.2 -->
      <g transform="translate(24.896875 320.028922)scale(0.1 -0.1)">
       <use xlink:href="#DejaVuSans-48"/>
       <use x="63.623047" xlink:href="#DejaVuSans-46"/>
       <use x="95.410156" xlink:href="#DejaVuSans-50"/>
      </g>
     </g>
    </g>
    <g id="ytick_3">
     <g id="line2d_10">
      <g>
       <use style="stroke:#000000;stroke-width:0.8;" x="47.8" xlink:href="#m8038999fdf" y="245.259406"/>
      </g>
     </g>
     <g id="text_11">
      <!-- 0.4 -->
      <g transform="translate(24.896875 249.058625)scale(0.1 -0.1)">
       <defs>
        <path d="M 37.796875 64.3125 
L 12.890625 25.390625 
L 37.796875 25.390625 
z
M 35.203125 72.90625 
L 47.609375 72.90625 
L 47.609375 25.390625 
L 58.015625 25.390625 
L 58.015625 17.1875 
L 47.609375 17.1875 
L 47.609375 0 
L 37.796875 0 
L 37.796875 17.1875 
L 4.890625 17.1875 
L 4.890625 26.703125 
z
" id="DejaVuSans-52"/>
       </defs>
       <use xlink:href="#DejaVuSans-48"/>
       <use x="63.623047" xlink:href="#DejaVuSans-46"/>
       <use x="95.410156" xlink:href="#DejaVuSans-52"/>
      </g>
     </g>
    </g>
    <g id="ytick_4">
     <g id="line2d_11">
      <g>
       <use style="stroke:#000000;stroke-width:0.8;" x="47.8" xlink:href="#m8038999fdf" y="174.289109"/>
      </g>
     </g>
     <g id="text_12">
      <!-- 0.6 -->
      <g transform="translate(24.896875 178.088328)scale(0.1 -0.1)">
       <defs>
        <path d="M 33.015625 40.375 
Q 26.375 40.375 22.484375 35.828125 
Q 18.609375 31.296875 18.609375 23.390625 
Q 18.609375 15.53125 22.484375 10.953125 
Q 26.375 6.390625 33.015625 6.390625 
Q 39.65625 6.390625 43.53125 10.953125 
Q 47.40625 15.53125 47.40625 23.390625 
Q 47.40625 31.296875 43.53125 35.828125 
Q 39.65625 40.375 33.015625 40.375 
z
M 52.59375 71.296875 
L 52.59375 62.3125 
Q 48.875 64.0625 45.09375 64.984375 
Q 41.3125 65.921875 37.59375 65.921875 
Q 27.828125 65.921875 22.671875 59.328125 
Q 17.53125 52.734375 16.796875 39.40625 
Q 19.671875 43.65625 24.015625 45.921875 
Q 28.375 48.1875 33.59375 48.1875 
Q 44.578125 48.1875 50.953125 41.515625 
Q 57.328125 34.859375 57.328125 23.390625 
Q 57.328125 12.15625 50.6875 5.359375 
Q 44.046875 -1.421875 33.015625 -1.421875 
Q 20.359375 -1.421875 13.671875 8.265625 
Q 6.984375 17.96875 6.984375 36.375 
Q 6.984375 53.65625 15.1875 63.9375 
Q 23.390625 74.21875 37.203125 74.21875 
Q 40.921875 74.21875 44.703125 73.484375 
Q 48.484375 72.75 52.59375 71.296875 
z
" id="DejaVuSans-54"/>
       </defs>
       <use xlink:href="#DejaVuSans-48"/>
       <use x="63.623047" xlink:href="#DejaVuSans-46"/>
       <use x="95.410156" xlink:href="#DejaVuSans-54"/>
      </g>
     </g>
    </g>
    <g id="ytick_5">
     <g id="line2d_12">
      <g>
       <use style="stroke:#000000;stroke-width:0.8;" x="47.8" xlink:href="#m8038999fdf" y="103.318812"/>
      </g>
     </g>
     <g id="text_13">
      <!-- 0.8 -->
      <g transform="translate(24.896875 107.118031)scale(0.1 -0.1)">
       <defs>
        <path d="M 31.78125 34.625 
Q 24.75 34.625 20.71875 30.859375 
Q 16.703125 27.09375 16.703125 20.515625 
Q 16.703125 13.921875 20.71875 10.15625 
Q 24.75 6.390625 31.78125 6.390625 
Q 38.8125 6.390625 42.859375 10.171875 
Q 46.921875 13.96875 46.921875 20.515625 
Q 46.921875 27.09375 42.890625 30.859375 
Q 38.875 34.625 31.78125 34.625 
z
M 21.921875 38.8125 
Q 15.578125 40.375 12.03125 44.71875 
Q 8.5 49.078125 8.5 55.328125 
Q 8.5 64.0625 14.71875 69.140625 
Q 20.953125 74.21875 31.78125 74.21875 
Q 42.671875 74.21875 48.875 69.140625 
Q 55.078125 64.0625 55.078125 55.328125 
Q 55.078125 49.078125 51.53125 44.71875 
Q 48 40.375 41.703125 38.8125 
Q 48.828125 37.15625 52.796875 32.3125 
Q 56.78125 27.484375 56.78125 20.515625 
Q 56.78125 9.90625 50.3125 4.234375 
Q 43.84375 -1.421875 31.78125 -1.421875 
Q 19.734375 -1.421875 13.25 4.234375 
Q 6.78125 9.90625 6.78125 20.515625 
Q 6.78125 27.484375 10.78125 32.3125 
Q 14.796875 37.15625 21.921875 38.8125 
z
M 18.3125 54.390625 
Q 18.3125 48.734375 21.84375 45.5625 
Q 25.390625 42.390625 31.78125 42.390625 
Q 38.140625 42.390625 41.71875 45.5625 
Q 45.3125 48.734375 45.3125 54.390625 
Q 45.3125 60.0625 41.71875 63.234375 
Q 38.140625 66.40625 31.78125 66.40625 
Q 25.390625 66.40625 21.84375 63.234375 
Q 18.3125 60.0625 18.3125 54.390625 
z
" id="DejaVuSans-56"/>
       </defs>
       <use xlink:href="#DejaVuSans-48"/>
       <use x="63.623047" xlink:href="#DejaVuSans-46"/>
       <use x="95.410156" xlink:href="#DejaVuSans-56"/>
      </g>
     </g>
    </g>
    <g id="ytick_6">
     <g id="line2d_13">
      <g>
       <use style="stroke:#000000;stroke-width:0.8;" x="47.8" xlink:href="#m8038999fdf" y="32.348515"/>
      </g>
     </g>
     <g id="text_14">
      <!-- 1.0 -->
      <g transform="translate(24.896875 36.147734)scale(0.1 -0.1)">
       <use xlink:href="#DejaVuSans-49"/>
       <use x="63.623047" xlink:href="#DejaVuSans-46"/>
       <use x="95.410156" xlink:href="#DejaVuSans-48"/>
      </g>
     </g>
    </g>
    <g id="text_15">
     <!-- Reflection -->
     <g transform="translate(18.817187 232.878125)rotate(-90)scale(0.1 -0.1)">
      <defs>
       <path d="M 44.390625 34.1875 
Q 47.5625 33.109375 50.5625 29.59375 
Q 53.5625 26.078125 56.59375 19.921875 
L 66.609375 0 
L 56 0 
L 46.6875 18.703125 
Q 43.0625 26.03125 39.671875 28.421875 
Q 36.28125 30.8125 30.421875 30.8125 
L 19.671875 30.8125 
L 19.671875 0 
L 9.8125 0 
L 9.8125 72.90625 
L 32.078125 72.90625 
Q 44.578125 72.90625 50.734375 67.671875 
Q 56.890625 62.453125 56.890625 51.90625 
Q 56.890625 45.015625 53.6875 40.46875 
Q 50.484375 35.9375 44.390625 34.1875 
z
M 19.671875 64.796875 
L 19.671875 38.921875 
L 32.078125 38.921875 
Q 39.203125 38.921875 42.84375 42.21875 
Q 46.484375 45.515625 46.484375 51.90625 
Q 46.484375 58.296875 42.84375 61.546875 
Q 39.203125 64.796875 32.078125 64.796875 
z
" id="DejaVuSans-82"/>
       <path d="M 56.203125 29.59375 
L 56.203125 25.203125 
L 14.890625 25.203125 
Q 15.484375 15.921875 20.484375 11.0625 
Q 25.484375 6.203125 34.421875 6.203125 
Q 39.59375 6.203125 44.453125 7.46875 
Q 49.3125 8.734375 54.109375 11.28125 
L 54.109375 2.78125 
Q 49.265625 0.734375 44.1875 -0.34375 
Q 39.109375 -1.421875 33.890625 -1.421875 
Q 20.796875 -1.421875 13.15625 6.1875 
Q 5.515625 13.8125 5.515625 26.8125 
Q 5.515625 40.234375 12.765625 48.109375 
Q 20.015625 56 32.328125 56 
Q 43.359375 56 49.78125 48.890625 
Q 56.203125 41.796875 56.203125 29.59375 
z
M 47.21875 32.234375 
Q 47.125 39.59375 43.09375 43.984375 
Q 39.0625 48.390625 32.421875 48.390625 
Q 24.90625 48.390625 20.390625 44.140625 
Q 15.875 39.890625 15.1875 32.171875 
z
" id="DejaVuSans-101"/>
       <path d="M 37.109375 75.984375 
L 37.109375 68.5 
L 28.515625 68.5 
Q 23.6875 68.5 21.796875 66.546875 
Q 19.921875 64.59375 19.921875 59.515625 
L 19.921875 54.6875 
L 34.71875 54.6875 
L 34.71875 47.703125 
L 19.921875 47.703125 
L 19.921875 0 
L 10.890625 0 
L 10.890625 47.703125 
L 2.296875 47.703125 
L 2.296875 54.6875 
L 10.890625 54.6875 
L 10.890625 58.5 
Q 10.890625 67.625 15.140625 71.796875 
Q 19.390625 75.984375 28.609375 75.984375 
z
" id="DejaVuSans-102"/>
       <path d="M 9.421875 75.984375 
L 18.40625 75.984375 
L 18.40625 0 
L 9.421875 0 
z
" id="DejaVuSans-108"/>
       <path d="M 48.78125 52.59375 
L 48.78125 44.1875 
Q 44.96875 46.296875 41.140625 47.34375 
Q 37.3125 48.390625 33.40625 48.390625 
Q 24.65625 48.390625 19.8125 42.84375 
Q 14.984375 37.3125 14.984375 27.296875 
Q 14.984375 17.28125 19.8125 11.734375 
Q 24.65625 6.203125 33.40625 6.203125 
Q 37.3125 6.203125 41.140625 7.25 
Q 44.96875 8.296875 48.78125 10.40625 
L 48.78125 2.09375 
Q 45.015625 0.34375 40.984375 -0.53125 
Q 36.96875 -1.421875 32.421875 -1.421875 
Q 20.0625 -1.421875 12.78125 6.34375 
Q 5.515625 14.109375 5.515625 27.296875 
Q 5.515625 40.671875 12.859375 48.328125 
Q 20.21875 56 33.015625 56 
Q 37.15625 56 41.109375 55.140625 
Q 45.0625 54.296875 48.78125 52.59375 
z
" id="DejaVuSans-99"/>
       <path d="M 18.3125 70.21875 
L 18.3125 54.6875 
L 36.8125 54.6875 
L 36.8125 47.703125 
L 18.3125 47.703125 
L 18.3125 18.015625 
Q 18.3125 11.328125 20.140625 9.421875 
Q 21.96875 7.515625 27.59375 7.515625 
L 36.8125 7.515625 
L 36.8125 0 
L 27.59375 0 
Q 17.1875 0 13.234375 3.875 
Q 9.28125 7.765625 9.28125 18.015625 
L 9.28125 47.703125 
L 2.6875 47.703125 
L 2.6875 54.6875 
L 9.28125 54.6875 
L 9.28125 70.21875 
z
" id="DejaVuSans-116"/>
       <path d="M 9.421875 54.6875 
L 18.40625 54.6875 
L 18.40625 0 
L 9.421875 0 
z
M 9.421875 75.984375 
L 18.40625 75.984375 
L 18.40625 64.59375 
L 9.421875 64.59375 
z
" id="DejaVuSans-105"/>
       <path d="M 30.609375 48.390625 
Q 23.390625 48.390625 19.1875 42.75 
Q 14.984375 37.109375 14.984375 27.296875 
Q 14.984375 17.484375 19.15625 11.84375 
Q 23.34375 6.203125 30.609375 6.203125 
Q 37.796875 6.203125 41.984375 11.859375 
Q 46.1875 17.53125 46.1875 27.296875 
Q 46.1875 37.015625 41.984375 42.703125 
Q 37.796875 48.390625 30.609375 48.390625 
z
M 30.609375 56 
Q 42.328125 56 49.015625 48.375 
Q 55.71875 40.765625 55.71875 27.296875 
Q 55.71875 13.875 49.015625 6.21875 
Q 42.328125 -1.421875 30.609375 -1.421875 
Q 18.84375 -1.421875 12.171875 6.21875 
Q 5.515625 13.875 5.515625 27.296875 
Q 5.515625 40.765625 12.171875 48.375 
Q 18.84375 56 30.609375 56 
z
" id="DejaVuSans-111"/>
       <path d="M 54.890625 33.015625 
L 54.890625 0 
L 45.90625 0 
L 45.90625 32.71875 
Q 45.90625 40.484375 42.875 44.328125 
Q 39.84375 48.1875 33.796875 48.1875 
Q 26.515625 48.1875 22.3125 43.546875 
Q 18.109375 38.921875 18.109375 30.90625 
L 18.109375 0 
L 9.078125 0 
L 9.078125 54.6875 
L 18.109375 54.6875 
L 18.109375 46.1875 
Q 21.34375 51.125 25.703125 53.5625 
Q 30.078125 56 35.796875 56 
Q 45.21875 56 50.046875 50.171875 
Q 54.890625 44.34375 54.890625 33.015625 
z
" id="DejaVuSans-110"/>
      </defs>
      <use xlink:href="#DejaVuSans-82"/>
      <use x="64.982422" xlink:href="#DejaVuSans-101"/>
      <use x="126.505859" xlink:href="#DejaVuSans-102"/>
      <use x="161.710938" xlink:href="#DejaVuSans-108"/>
      <use x="189.494141" xlink:href="#DejaVuSans-101"/>
      <use x="251.017578" xlink:href="#DejaVuSans-99"/>
      <use x="305.998047" xlink:href="#DejaVuSans-116"/>
      <use x="345.207031" xlink:href="#DejaVuSans-105"/>
      <use x="372.990234" xlink:href="#DejaVuSans-111"/>
      <use x="434.171875" xlink:href="#DejaVuSans-110"/>
     </g>
    </g>
   </g>
   <g id="line2d_14">
    <path clip-path="url(#pb58d06e692)" d="M 49.247375 375.131893 
L 50.11464 358.271786 
L 51.849169 314.267167 
L 53.583699 270.657892 
L 54.450964 251.955701 
L 55.318228 235.837473 
L 56.185493 222.315724 
L 57.052758 211.265921 
L 57.920023 202.510561 
L 58.787288 195.86901 
L 59.654552 191.184698 
L 60.521817 188.338787 
L 61.389082 187.25645 
L 62.256347 187.909439 
L 63.123611 190.316899 
L 63.990876 194.545095 
L 64.858141 200.705649 
L 65.725406 208.950657 
L 66.592671 219.461395 
L 67.459935 232.425011 
L 68.3272 247.990484 
L 69.194465 266.192143 
L 70.928994 309.296807 
L 72.663524 354.244041 
L 73.530789 372.307866 
L 74.398054 383.931302 
L 75.265318 387.090812 
L 76.132583 381.170757 
L 76.999848 367.225313 
L 77.867113 347.54472 
L 81.336172 258.966334 
L 82.203437 241.312363 
L 83.070701 226.33091 
L 83.937966 213.940202 
L 84.805231 203.969079 
L 85.672496 196.223944 
L 86.539761 190.526352 
L 87.407025 186.732449 
L 88.27429 184.742192 
L 89.141555 184.50334 
L 90.00882 186.013064 
L 90.876084 189.318468 
L 91.743349 194.516189 
L 92.610614 201.750039 
L 93.477879 211.204195 
L 94.345144 223.087241 
L 95.212408 237.5992 
L 96.079673 254.869761 
L 97.814203 297.165369 
L 99.548732 344.325215 
L 100.415997 365.053178 
L 101.283262 380.145347 
L 102.150527 386.976229 
L 103.017791 384.174915 
L 103.885056 372.221052 
L 104.752321 353.239156 
L 108.22138 260.385173 
L 109.088645 241.392515 
L 109.95591 225.231118 
L 110.823174 211.827772 
L 111.690439 200.993776 
L 112.557704 192.507963 
L 113.424969 186.162838 
L 114.292233 181.787989 
L 115.159498 179.26085 
L 116.026763 178.511184 
L 116.894028 179.522892 
L 117.761293 182.334988 
L 118.628557 187.04221 
L 119.495822 193.794589 
L 120.363087 202.793769 
L 121.230352 214.281572 
L 122.097616 228.512686 
L 122.964881 245.698193 
L 123.832146 265.900865 
L 125.566676 313.75275 
L 127.301205 361.678108 
L 128.16847 378.716223 
L 129.035735 386.825241 
L 129.902999 384.201393 
L 130.770264 371.283417 
L 131.637529 350.554243 
L 135.106588 251.381697 
L 135.973853 231.761376 
L 136.841118 215.269364 
L 137.708383 201.744298 
L 138.575647 190.925455 
L 139.442912 182.538945 
L 140.310177 176.341955 
L 141.177442 172.142959 
L 142.044706 169.809675 
L 142.911971 169.271696 
L 143.779236 170.52156 
L 144.646501 173.616055 
L 145.513766 178.678177 
L 146.38103 185.898865 
L 147.248295 195.535796 
L 148.11556 207.903402 
L 148.982825 223.342856 
L 149.850089 242.152255 
L 150.717354 264.446552 
L 152.451884 317.440093 
L 153.319149 344.737446 
L 154.186413 368.183064 
L 155.053678 383.41272 
L 155.920943 386.832759 
L 156.788208 377.375891 
L 157.655472 357.121871 
L 159.390002 300.947489 
L 161.124532 247.111648 
L 161.991796 225.174055 
L 162.859061 206.901788 
L 163.726326 192.046979 
L 164.593591 180.24155 
L 165.460855 171.113261 
L 166.32812 164.339845 
L 167.195385 159.670127 
L 168.06265 156.929818 
L 168.929915 156.021748 
L 169.797179 156.925548 
L 170.664444 159.699175 
L 171.531709 164.483155 
L 172.398974 171.507106 
L 173.266238 181.096179 
L 174.133503 193.671286 
L 175.000768 209.729281 
L 175.868033 229.774855 
L 176.735298 254.152548 
L 178.469827 314.175901 
L 179.337092 345.512301 
L 180.204357 371.505791 
L 181.071621 385.864168 
L 181.938886 384.069326 
L 182.806151 366.239554 
L 183.673416 337.126516 
L 185.407945 269.764108 
L 186.27521 239.808484 
L 187.142475 214.47484 
L 188.00974 193.79335 
L 188.877005 177.306018 
L 189.744269 164.421353 
L 190.611534 154.581582 
L 191.478799 147.326442 
L 192.346064 142.308875 
L 193.213328 139.292388 
L 194.080593 138.144456 
L 194.947858 138.832545 
L 195.815123 141.425749 
L 196.682388 146.103556 
L 197.549652 153.172287 
L 198.416917 163.08812 
L 199.284182 176.480789 
L 200.151447 194.159307 
L 201.018711 217.050235 
L 201.885976 245.954038 
L 203.620506 319.858123 
L 204.487771 356.969142 
L 205.355035 382.187587 
L 206.2223 385.462059 
L 207.089565 364.406791 
L 207.95683 326.705752 
L 209.691359 243.644263 
L 210.558624 210.009626 
L 211.425889 183.288473 
L 212.293154 162.662389 
L 213.160418 147.01041 
L 214.027683 135.313076 
L 214.894948 126.76682 
L 215.762213 120.786698 
L 216.629477 116.977997 
L 217.496742 115.107892 
L 218.364007 115.087944 
L 219.231272 116.971378 
L 220.098537 120.968015 
L 220.965801 127.481096 
L 221.833066 137.172258 
L 222.700331 151.059968 
L 223.567596 170.641401 
L 224.43486 197.95859 
L 225.302125 235.292273 
L 227.90392 379.220483 
L 228.771184 382.994678 
L 229.638449 343.217921 
L 231.372979 226.721295 
L 232.240243 182.829149 
L 233.107508 151.167604 
L 233.974773 128.878568 
L 234.842038 113.274748 
L 235.709303 102.397326 
L 236.576567 94.938812 
L 237.443832 90.069106 
L 238.311097 87.298912 
L 239.178362 86.39862 
L 240.045627 87.368946 
L 240.912891 90.46519 
L 241.780156 96.294368 
L 242.647421 106.038069 
L 243.514686 121.919231 
L 244.38195 148.132662 
L 245.249215 192.337749 
L 246.11648 265.003635 
L 246.983745 356.924598 
L 247.85101 379.63556 
L 249.585539 189.881351 
L 250.452804 130.654332 
L 251.320069 97.911959 
L 252.187333 79.380291 
L 253.054598 68.473735 
L 253.921863 61.929972 
L 254.789128 58.134073 
L 255.656393 56.333943 
L 256.523657 56.341193 
L 257.390922 58.567584 
L 258.258187 64.612326 
L 259.125452 79.859501 
L 259.992716 127.942836 
L 260.859981 331.322254 
L 261.727246 186.261668 
L 262.594511 65.353975 
L 263.461776 43.486756 
L 264.32904 37.20535 
L 265.196305 34.805652 
L 266.06357 33.717557 
L 266.930835 33.165055 
L 267.798099 32.861005 
L 269.532629 32.57435 
L 273.001688 32.40752 
L 282.541601 32.3528 
L 400.489611 32.362306 
L 408.294994 32.481484 
L 410.896788 32.68785 
L 412.631318 33.029497 
L 413.498582 33.338958 
L 414.365847 33.818813 
L 415.233112 34.582442 
L 416.100377 35.834377 
L 416.967642 37.958659 
L 417.834906 41.709398 
L 418.702171 48.639807 
L 419.569436 62.091696 
L 420.436701 89.365291 
L 421.303965 144.900143 
L 423.038495 352.228865 
L 423.90576 386.753211 
L 424.773025 358.764775 
L 425.640289 323.697697 
L 426.507554 300.821858 
L 427.374819 290.760285 
L 428.242084 290.787628 
L 429.109348 298.328355 
L 429.976613 311.155038 
L 432.578408 359.483713 
L 433.445672 372.05041 
L 434.312937 380.726695 
L 435.180202 385.522658 
L 436.047467 387.159916 
L 436.914731 386.699154 
L 439.516526 382.108494 
L 440.383791 381.348045 
L 441.251055 381.257791 
L 442.11832 381.74618 
L 442.985585 382.636344 
L 445.587379 385.746411 
L 446.454644 386.452563 
L 447.321909 386.903476 
L 448.189174 387.130364 
L 449.923703 387.184913 
L 452.525497 387.17827 
L 454.260027 387.151937 
L 455.127292 386.948074 
L 455.994557 386.49857 
L 456.861821 385.728183 
L 457.729086 384.593642 
L 458.596351 383.096778 
L 460.330881 379.279198 
L 462.06541 375.239883 
L 462.932675 373.559868 
L 463.79994 372.332843 
L 464.667204 371.698432 
L 465.534469 371.753538 
L 466.401734 372.539572 
L 467.268999 374.031838 
L 468.136264 376.131288 
L 471.605323 385.941928 
L 472.472587 387.075076 
L 473.339852 386.974838 
L 474.207117 385.399746 
L 475.074382 382.24957 
L 475.941647 377.59167 
L 476.808911 371.658818 
L 481.145235 337.628807 
L 482.0125 333.024731 
L 482.0125 333.024731 
" style="fill:none;stroke:#ff00ff;stroke-linecap:square;stroke-width:1.5;"/>
   </g>
   <g id="line2d_15">
    <path clip-path="url(#pb58d06e692)" d="M 49.247375 375.131893 
L 50.11464 358.271786 
L 51.849169 314.267167 
L 53.583699 270.657892 
L 54.450964 251.955701 
L 55.318228 235.837473 
L 56.185493 222.315724 
L 57.052758 211.265921 
L 57.920023 202.510561 
L 58.787288 195.86901 
L 59.654552 191.184698 
L 60.521817 188.338787 
L 61.389082 187.25645 
L 62.256347 187.909439 
L 63.123611 190.316899 
L 63.990876 194.545095 
L 64.858141 200.705649 
L 65.725406 208.950657 
L 66.592671 219.461395 
L 67.459935 232.425011 
L 68.3272 247.990484 
L 69.194465 266.192143 
L 70.928994 309.296807 
L 72.663524 354.244041 
L 73.530789 372.307866 
L 74.398054 383.931302 
L 75.265318 387.090812 
L 76.132583 381.170757 
L 76.999848 367.225313 
L 77.867113 347.54472 
L 81.336172 258.966334 
L 82.203437 241.312363 
L 83.070701 226.33091 
L 83.937966 213.940202 
L 84.805231 203.969079 
L 85.672496 196.223944 
L 86.539761 190.526352 
L 87.407025 186.732449 
L 88.27429 184.742192 
L 89.141555 184.50334 
L 90.00882 186.013064 
L 90.876084 189.318468 
L 91.743349 194.516189 
L 92.610614 201.750039 
L 93.477879 211.204195 
L 94.345144 223.087241 
L 95.212408 237.5992 
L 96.079673 254.869761 
L 97.814203 297.165369 
L 99.548732 344.325215 
L 100.415997 365.053178 
L 101.283262 380.145347 
L 102.150527 386.976229 
L 103.017791 384.174915 
L 103.885056 372.221052 
L 104.752321 353.239156 
L 108.22138 260.385173 
L 109.088645 241.392515 
L 109.95591 225.231118 
L 110.823174 211.827772 
L 111.690439 200.993776 
L 112.557704 192.507963 
L 113.424969 186.162838 
L 114.292233 181.787989 
L 115.159498 179.26085 
L 116.026763 178.511184 
L 116.894028 179.522892 
L 117.761293 182.334988 
L 118.628557 187.04221 
L 119.495822 193.794589 
L 120.363087 202.793769 
L 121.230352 214.281572 
L 122.097616 228.512686 
L 122.964881 245.698193 
L 123.832146 265.900865 
L 125.566676 313.75275 
L 127.301205 361.678108 
L 128.16847 378.716223 
L 129.035735 386.825241 
L 129.902999 384.201393 
L 130.770264 371.283417 
L 131.637529 350.554243 
L 135.106588 251.381697 
L 135.973853 231.761376 
L 136.841118 215.269364 
L 137.708383 201.744298 
L 138.575647 190.925455 
L 139.442912 182.538945 
L 140.310177 176.341955 
L 141.177442 172.142959 
L 142.044706 169.809675 
L 142.911971 169.271696 
L 143.779236 170.52156 
L 144.646501 173.616055 
L 145.513766 178.678177 
L 146.38103 185.898865 
L 147.248295 195.535796 
L 148.11556 207.903402 
L 148.982825 223.342856 
L 149.850089 242.152255 
L 150.717354 264.446552 
L 152.451884 317.440093 
L 153.319149 344.737446 
L 154.186413 368.183064 
L 155.053678 383.41272 
L 155.920943 386.832759 
L 156.788208 377.375891 
L 157.655472 357.121871 
L 159.390002 300.947489 
L 161.124532 247.111648 
L 161.991796 225.174055 
L 162.859061 206.901788 
L 163.726326 192.046979 
L 164.593591 180.24155 
L 165.460855 171.113261 
L 166.32812 164.339845 
L 167.195385 159.670127 
L 168.06265 156.929818 
L 168.929915 156.021748 
L 169.797179 156.925548 
L 170.664444 159.699175 
L 171.531709 164.483155 
L 172.398974 171.507106 
L 173.266238 181.096179 
L 174.133503 193.671286 
L 175.000768 209.729281 
L 175.868033 229.774855 
L 176.735298 254.152548 
L 178.469827 314.175901 
L 179.337092 345.512301 
L 180.204357 371.505791 
L 181.071621 385.864168 
L 181.938886 384.069326 
L 182.806151 366.239554 
L 183.673416 337.126516 
L 185.407945 269.764108 
L 186.27521 239.808484 
L 187.142475 214.47484 
L 188.00974 193.79335 
L 188.877005 177.306018 
L 189.744269 164.421353 
L 190.611534 154.581582 
L 191.478799 147.326442 
L 192.346064 142.308875 
L 193.213328 139.292388 
L 194.080593 138.144456 
L 194.947858 138.832545 
L 195.815123 141.425749 
L 196.682388 146.103556 
L 197.549652 153.172287 
L 198.416917 163.08812 
L 199.284182 176.480789 
L 200.151447 194.159307 
L 201.018711 217.050235 
L 201.885976 245.954038 
L 203.620506 319.858123 
L 204.487771 356.969142 
L 205.355035 382.187587 
L 206.2223 385.462059 
L 207.089565 364.406791 
L 207.95683 326.705752 
L 209.691359 243.644263 
L 210.558624 210.009626 
L 211.425889 183.288473 
L 212.293154 162.662389 
L 213.160418 147.01041 
L 214.027683 135.313076 
L 214.894948 126.76682 
L 215.762213 120.786698 
L 216.629477 116.977997 
L 217.496742 115.107892 
L 218.364007 115.087944 
L 219.231272 116.971378 
L 220.098537 120.968015 
L 220.965801 127.481096 
L 221.833066 137.172258 
L 222.700331 151.059968 
L 223.567596 170.641401 
L 224.43486 197.95859 
L 225.302125 235.292273 
L 227.90392 379.220483 
L 228.771184 382.994678 
L 229.638449 343.217921 
L 231.372979 226.721295 
L 232.240243 182.829149 
L 233.107508 151.167604 
L 233.974773 128.878568 
L 234.842038 113.274748 
L 235.709303 102.397326 
L 236.576567 94.938812 
L 237.443832 90.069106 
L 238.311097 87.298912 
L 239.178362 86.39862 
L 240.045627 87.368946 
L 240.912891 90.46519 
L 241.780156 96.294368 
L 242.647421 106.038069 
L 243.514686 121.919231 
L 244.38195 148.132662 
L 245.249215 192.337749 
L 246.11648 265.003635 
L 246.983745 356.924598 
L 247.85101 379.63556 
L 249.585539 189.881351 
L 250.452804 130.654332 
L 251.320069 97.911959 
L 252.187333 79.380291 
L 253.054598 68.473735 
L 253.921863 61.929972 
L 254.789128 58.134073 
L 255.656393 56.333943 
L 256.523657 56.341193 
L 257.390922 58.567584 
L 258.258187 64.612326 
L 259.125452 79.859501 
L 259.992716 127.942836 
L 260.859981 331.322254 
L 261.727246 186.261668 
L 262.594511 65.353975 
L 263.461776 43.486756 
L 264.32904 37.20535 
L 265.196305 34.805652 
L 266.06357 33.717557 
L 266.930835 33.165055 
L 267.798099 32.861005 
L 269.532629 32.57435 
L 273.001688 32.40752 
L 282.541601 32.3528 
L 400.489611 32.362306 
L 408.294994 32.481484 
L 410.896788 32.68785 
L 412.631318 33.029497 
L 413.498582 33.338958 
L 414.365847 33.818813 
L 415.233112 34.582442 
L 416.100377 35.834377 
L 416.967642 37.958659 
L 417.834906 41.709398 
L 418.702171 48.639807 
L 419.569436 62.091696 
L 420.436701 89.365291 
L 421.303965 144.900143 
L 423.038495 352.228865 
L 423.90576 386.753211 
L 424.773025 358.764775 
L 425.640289 323.697697 
L 426.507554 300.821858 
L 427.374819 290.760285 
L 428.242084 290.787628 
L 429.109348 298.328355 
L 429.976613 311.155038 
L 432.578408 359.483713 
L 433.445672 372.05041 
L 434.312937 380.726695 
L 435.180202 385.522658 
L 436.047467 387.159916 
L 436.914731 386.699154 
L 439.516526 382.108494 
L 440.383791 381.348045 
L 441.251055 381.257791 
L 442.11832 381.74618 
L 442.985585 382.636344 
L 445.587379 385.746411 
L 446.454644 386.452563 
L 447.321909 386.903476 
L 448.189174 387.130364 
L 449.923703 387.184913 
L 452.525497 387.17827 
L 454.260027 387.151937 
L 455.127292 386.948074 
L 455.994557 386.49857 
L 456.861821 385.728183 
L 457.729086 384.593642 
L 458.596351 383.096778 
L 460.330881 379.279198 
L 462.06541 375.239883 
L 462.932675 373.559868 
L 463.79994 372.332843 
L 464.667204 371.698432 
L 465.534469 371.753538 
L 466.401734 372.539572 
L 467.268999 374.031838 
L 468.136264 376.131288 
L 471.605323 385.941928 
L 472.472587 387.075076 
L 473.339852 386.974838 
L 474.207117 385.399746 
L 475.074382 382.24957 
L 475.941647 377.59167 
L 476.808911 371.658818 
L 481.145235 337.628807 
L 482.0125 333.024731 
L 482.0125 333.024731 
" style="fill:none;stroke:#483d8b;stroke-dasharray:5.55,2.4;stroke-dashoffset:0;stroke-width:1.5;"/>
   </g>
   <g id="patch_3">
    <path d="M 47.8 387.2 
L 47.8 28.8 
" style="fill:none;stroke:#000000;stroke-linecap:square;stroke-linejoin:miter;stroke-width:0.8;"/>
   </g>
   <g id="patch_4">
    <path d="M 482.0125 387.2 
L 482.0125 28.8 
" style="fill:none;stroke:#000000;stroke-linecap:square;stroke-linejoin:miter;stroke-width:0.8;"/>
   </g>
   <g id="patch_5">
    <path d="M 47.8 387.2 
L 482.0125 387.2 
" style="fill:none;stroke:#000000;stroke-linecap:square;stroke-linejoin:miter;stroke-width:0.8;"/>
   </g>
   <g id="patch_6">
    <path d="M 47.8 28.8 
L 482.0125 28.8 
" style="fill:none;stroke:#000000;stroke-linecap:square;stroke-linejoin:miter;stroke-width:0.8;"/>
   </g>
   <g id="text_16">
    <!-- Reflection GaAs/Air Multilayer $θ_{inc} = 0°$ -->
    <g transform="translate(149.34625 22.8)scale(0.12 -0.12)">
     <defs>
      <path id="DejaVuSans-32"/>
      <path d="M 59.515625 10.40625 
L 59.515625 29.984375 
L 43.40625 29.984375 
L 43.40625 38.09375 
L 69.28125 38.09375 
L 69.28125 6.78125 
Q 63.578125 2.734375 56.6875 0.65625 
Q 49.8125 -1.421875 42 -1.421875 
Q 24.90625 -1.421875 15.25 8.5625 
Q 5.609375 18.5625 5.609375 36.375 
Q 5.609375 54.25 15.25 64.234375 
Q 24.90625 74.21875 42 74.21875 
Q 49.125 74.21875 55.546875 72.453125 
Q 61.96875 70.703125 67.390625 67.28125 
L 67.390625 56.78125 
Q 61.921875 61.421875 55.765625 63.765625 
Q 49.609375 66.109375 42.828125 66.109375 
Q 29.4375 66.109375 22.71875 58.640625 
Q 16.015625 51.171875 16.015625 36.375 
Q 16.015625 21.625 22.71875 14.15625 
Q 29.4375 6.6875 42.828125 6.6875 
Q 48.046875 6.6875 52.140625 7.59375 
Q 56.25 8.5 59.515625 10.40625 
z
" id="DejaVuSans-71"/>
      <path d="M 34.28125 27.484375 
Q 23.390625 27.484375 19.1875 25 
Q 14.984375 22.515625 14.984375 16.5 
Q 14.984375 11.71875 18.140625 8.90625 
Q 21.296875 6.109375 26.703125 6.109375 
Q 34.1875 6.109375 38.703125 11.40625 
Q 43.21875 16.703125 43.21875 25.484375 
L 43.21875 27.484375 
z
M 52.203125 31.203125 
L 52.203125 0 
L 43.21875 0 
L 43.21875 8.296875 
Q 40.140625 3.328125 35.546875 0.953125 
Q 30.953125 -1.421875 24.3125 -1.421875 
Q 15.921875 -1.421875 10.953125 3.296875 
Q 6 8.015625 6 15.921875 
Q 6 25.140625 12.171875 29.828125 
Q 18.359375 34.515625 30.609375 34.515625 
L 43.21875 34.515625 
L 43.21875 35.40625 
Q 43.21875 41.609375 39.140625 45 
Q 35.0625 48.390625 27.6875 48.390625 
Q 23 48.390625 18.546875 47.265625 
Q 14.109375 46.140625 10.015625 43.890625 
L 10.015625 52.203125 
Q 14.9375 54.109375 19.578125 55.046875 
Q 24.21875 56 28.609375 56 
Q 40.484375 56 46.34375 49.84375 
Q 52.203125 43.703125 52.203125 31.203125 
z
" id="DejaVuSans-97"/>
      <path d="M 34.1875 63.1875 
L 20.796875 26.90625 
L 47.609375 26.90625 
z
M 28.609375 72.90625 
L 39.796875 72.90625 
L 67.578125 0 
L 57.328125 0 
L 50.6875 18.703125 
L 17.828125 18.703125 
L 11.1875 0 
L 0.78125 0 
z
" id="DejaVuSans-65"/>
      <path d="M 44.28125 53.078125 
L 44.28125 44.578125 
Q 40.484375 46.53125 36.375 47.5 
Q 32.28125 48.484375 27.875 48.484375 
Q 21.1875 48.484375 17.84375 46.4375 
Q 14.5 44.390625 14.5 40.28125 
Q 14.5 37.15625 16.890625 35.375 
Q 19.28125 33.59375 26.515625 31.984375 
L 29.59375 31.296875 
Q 39.15625 29.25 43.1875 25.515625 
Q 47.21875 21.78125 47.21875 15.09375 
Q 47.21875 7.46875 41.1875 3.015625 
Q 35.15625 -1.421875 24.609375 -1.421875 
Q 20.21875 -1.421875 15.453125 -0.5625 
Q 10.6875 0.296875 5.421875 2 
L 5.421875 11.28125 
Q 10.40625 8.6875 15.234375 7.390625 
Q 20.0625 6.109375 24.8125 6.109375 
Q 31.15625 6.109375 34.5625 8.28125 
Q 37.984375 10.453125 37.984375 14.40625 
Q 37.984375 18.0625 35.515625 20.015625 
Q 33.0625 21.96875 24.703125 23.78125 
L 21.578125 24.515625 
Q 13.234375 26.265625 9.515625 29.90625 
Q 5.8125 33.546875 5.8125 39.890625 
Q 5.8125 47.609375 11.28125 51.796875 
Q 16.75 56 26.8125 56 
Q 31.78125 56 36.171875 55.265625 
Q 40.578125 54.546875 44.28125 53.078125 
z
" id="DejaVuSans-115"/>
      <path d="M 41.109375 46.296875 
Q 39.59375 47.171875 37.8125 47.578125 
Q 36.03125 48 33.890625 48 
Q 26.265625 48 22.1875 43.046875 
Q 18.109375 38.09375 18.109375 28.8125 
L 18.109375 0 
L 9.078125 0 
L 9.078125 54.6875 
L 18.109375 54.6875 
L 18.109375 46.1875 
Q 20.953125 51.171875 25.484375 53.578125 
Q 30.03125 56 36.53125 56 
Q 37.453125 56 38.578125 55.875 
Q 39.703125 55.765625 41.0625 55.515625 
z
" id="DejaVuSans-114"/>
      <path d="M 9.8125 72.90625 
L 24.515625 72.90625 
L 43.109375 23.296875 
L 61.8125 72.90625 
L 76.515625 72.90625 
L 76.515625 0 
L 66.890625 0 
L 66.890625 64.015625 
L 48.09375 14.015625 
L 38.1875 14.015625 
L 19.390625 64.015625 
L 19.390625 0 
L 9.8125 0 
z
" id="DejaVuSans-77"/>
      <path d="M 8.5 21.578125 
L 8.5 54.6875 
L 17.484375 54.6875 
L 17.484375 21.921875 
Q 17.484375 14.15625 20.5 10.265625 
Q 23.53125 6.390625 29.59375 6.390625 
Q 36.859375 6.390625 41.078125 11.03125 
Q 45.3125 15.671875 45.3125 23.6875 
L 45.3125 54.6875 
L 54.296875 54.6875 
L 54.296875 0 
L 45.3125 0 
L 45.3125 8.40625 
Q 42.046875 3.421875 37.71875 1 
Q 33.40625 -1.421875 27.6875 -1.421875 
Q 18.265625 -1.421875 13.375 4.4375 
Q 8.5 10.296875 8.5 21.578125 
z
M 31.109375 56 
z
" id="DejaVuSans-117"/>
      <path d="M 32.171875 -5.078125 
Q 28.375 -14.84375 24.75 -17.8125 
Q 21.140625 -20.796875 15.09375 -20.796875 
L 7.90625 -20.796875 
L 7.90625 -13.28125 
L 13.1875 -13.28125 
Q 16.890625 -13.28125 18.9375 -11.515625 
Q 21 -9.765625 23.484375 -3.21875 
L 25.09375 0.875 
L 2.984375 54.6875 
L 12.5 54.6875 
L 29.59375 11.921875 
L 46.6875 54.6875 
L 56.203125 54.6875 
z
" id="DejaVuSans-121"/>
      <path d="M 45.515625 34.671875 
L 14.453125 34.671875 
Q 12.359375 20.0625 14.5 13.875 
Q 17.1875 6.25 24.46875 6.25 
Q 31.78125 6.25 37.359375 13.921875 
Q 42.234375 20.65625 45.515625 34.671875 
z
M 47.015625 42.96875 
Q 48.34375 56.84375 46.625 61.71875 
Q 43.953125 69.4375 36.765625 69.4375 
Q 29.296875 69.4375 23.828125 61.8125 
Q 19.53125 55.671875 16.15625 42.96875 
z
M 38.1875 76.765625 
Q 49.90625 76.765625 54.59375 66.40625 
Q 59.28125 56.109375 55.71875 37.84375 
Q 52.203125 19.625 43.453125 9.28125 
Q 34.765625 -1.125 23.046875 -1.125 
Q 11.28125 -1.125 6.640625 9.28125 
Q 2 19.625 5.515625 37.84375 
Q 9.078125 56.109375 17.71875 66.40625 
Q 26.421875 76.765625 38.1875 76.765625 
z
" id="DejaVuSans-Oblique-952"/>
      <path d="M 18.3125 75.984375 
L 27.296875 75.984375 
L 25.09375 64.59375 
L 16.109375 64.59375 
z
M 14.203125 54.6875 
L 23.1875 54.6875 
L 12.5 0 
L 3.515625 0 
z
" id="DejaVuSans-Oblique-105"/>
      <path d="M 55.71875 33.015625 
L 49.3125 0 
L 40.28125 0 
L 46.6875 32.671875 
Q 47.125 34.96875 47.359375 36.71875 
Q 47.609375 38.484375 47.609375 39.5 
Q 47.609375 43.609375 45.015625 45.890625 
Q 42.4375 48.1875 37.796875 48.1875 
Q 30.5625 48.1875 25.34375 43.375 
Q 20.125 38.578125 18.5 30.328125 
L 12.5 0 
L 3.515625 0 
L 14.109375 54.6875 
L 23.09375 54.6875 
L 21.296875 46.09375 
Q 25.046875 50.828125 30.3125 53.40625 
Q 35.59375 56 41.40625 56 
Q 48.640625 56 52.609375 52.09375 
Q 56.59375 48.1875 56.59375 41.109375 
Q 56.59375 39.359375 56.375 37.359375 
Q 56.15625 35.359375 55.71875 33.015625 
z
" id="DejaVuSans-Oblique-110"/>
      <path d="M 10.59375 45.40625 
L 73.1875 45.40625 
L 73.1875 37.203125 
L 10.59375 37.203125 
z
M 10.59375 25.484375 
L 73.1875 25.484375 
L 73.1875 17.1875 
L 10.59375 17.1875 
z
" id="DejaVuSans-61"/>
      <path d="M 25 67.921875 
Q 21.09375 67.921875 18.40625 65.203125 
Q 15.71875 62.5 15.71875 58.59375 
Q 15.71875 54.734375 18.40625 52.078125 
Q 21.09375 49.421875 25 49.421875 
Q 28.90625 49.421875 31.59375 52.078125 
Q 34.28125 54.734375 34.28125 58.59375 
Q 34.28125 62.453125 31.5625 65.1875 
Q 28.859375 67.921875 25 67.921875 
z
M 25 74.21875 
Q 28.125 74.21875 31 73.015625 
Q 33.890625 71.828125 35.984375 69.578125 
Q 38.234375 67.390625 39.359375 64.59375 
Q 40.484375 61.8125 40.484375 58.59375 
Q 40.484375 52.15625 35.96875 47.6875 
Q 31.453125 43.21875 24.90625 43.21875 
Q 18.3125 43.21875 13.90625 47.609375 
Q 9.515625 52 9.515625 58.59375 
Q 9.515625 65.140625 14 69.671875 
Q 18.5 74.21875 25 74.21875 
z
" id="DejaVuSans-176"/>
     </defs>
     <use transform="translate(0 0.234375)" xlink:href="#DejaVuSans-82"/>
     <use transform="translate(69.482422 0.234375)" xlink:href="#DejaVuSans-101"/>
     <use transform="translate(131.005859 0.234375)" xlink:href="#DejaVuSans-102"/>
     <use transform="translate(166.210938 0.234375)" xlink:href="#DejaVuSans-108"/>
     <use transform="translate(193.994141 0.234375)" xlink:href="#DejaVuSans-101"/>
     <use transform="translate(255.517578 0.234375)" xlink:href="#DejaVuSans-99"/>
     <use transform="translate(310.498047 0.234375)" xlink:href="#DejaVuSans-116"/>
     <use transform="translate(349.707031 0.234375)" xlink:href="#DejaVuSans-105"/>
     <use transform="translate(377.490234 0.234375)" xlink:href="#DejaVuSans-111"/>
     <use transform="translate(438.671875 0.234375)" xlink:href="#DejaVuSans-110"/>
     <use transform="translate(502.050781 0.234375)" xlink:href="#DejaVuSans-32"/>
     <use transform="translate(533.837891 0.234375)" xlink:href="#DejaVuSans-71"/>
     <use transform="translate(611.328125 0.234375)" xlink:href="#DejaVuSans-97"/>
     <use transform="translate(672.607422 0.234375)" xlink:href="#DejaVuSans-65"/>
     <use transform="translate(741.015625 0.234375)" xlink:href="#DejaVuSans-115"/>
     <use transform="translate(793.115234 0.234375)" xlink:href="#DejaVuSans-47"/>
     <use transform="translate(826.806641 0.234375)" xlink:href="#DejaVuSans-65"/>
     <use transform="translate(895.214844 0.234375)" xlink:href="#DejaVuSans-105"/>
     <use transform="translate(922.998047 0.234375)" xlink:href="#DejaVuSans-114"/>
     <use transform="translate(964.111328 0.234375)" xlink:href="#DejaVuSans-32"/>
     <use transform="translate(995.898438 0.234375)" xlink:href="#DejaVuSans-77"/>
     <use transform="translate(1082.177734 0.234375)" xlink:href="#DejaVuSans-117"/>
     <use transform="translate(1145.556641 0.234375)" xlink:href="#DejaVuSans-108"/>
     <use transform="translate(1173.339844 0.234375)" xlink:href="#DejaVuSans-116"/>
     <use transform="translate(1212.548828 0.234375)" xlink:href="#DejaVuSans-105"/>
     <use transform="translate(1240.332031 0.234375)" xlink:href="#DejaVuSans-108"/>
     <use transform="translate(1268.115234 0.234375)" xlink:href="#DejaVuSans-97"/>
     <use transform="translate(1329.394531 0.234375)" xlink:href="#DejaVuSans-121"/>
     <use transform="translate(1388.574219 0.234375)" xlink:href="#DejaVuSans-101"/>
     <use transform="translate(1450.097656 0.234375)" xlink:href="#DejaVuSans-114"/>
     <use transform="translate(1491.210938 0.234375)" xlink:href="#DejaVuSans-32"/>
     <use transform="translate(1522.998047 0.234375)" xlink:href="#DejaVuSans-Oblique-952"/>
     <use transform="translate(1584.179688 -16.171875)scale(0.7)" xlink:href="#DejaVuSans-Oblique-105"/>
     <use transform="translate(1603.62793 -16.171875)scale(0.7)" xlink:href="#DejaVuSans-Oblique-110"/>
     <use transform="translate(1647.993164 -16.171875)scale(0.7)" xlink:href="#DejaVuSans-Oblique-99"/>
     <use transform="translate(1708.696289 0.234375)" xlink:href="#DejaVuSans-61"/>
     <use transform="translate(1811.967773 0.234375)" xlink:href="#DejaVuSans-48"/>
     <use transform="translate(1875.59082 0.234375)" xlink:href="#DejaVuSans-176"/>
    </g>
   </g>
   <g id="legend_1">
    <g id="patch_7">
     <path d="M 428.276562 66.15625 
L 475.0125 66.15625 
Q 477.0125 66.15625 477.0125 64.15625 
L 477.0125 35.8 
Q 477.0125 33.8 475.0125 33.8 
L 428.276562 33.8 
Q 426.276562 33.8 426.276562 35.8 
L 426.276562 64.15625 
Q 426.276562 66.15625 428.276562 66.15625 
z
" style="fill:#ffffff;opacity:0.8;stroke:#cccccc;stroke-linejoin:miter;"/>
    </g>
    <g id="line2d_16">
     <path d="M 430.276562 41.898438 
L 450.276562 41.898438 
" style="fill:none;stroke:#ff00ff;stroke-linecap:square;stroke-width:1.5;"/>
    </g>
    <g id="line2d_17"/>
    <g id="text_17">
     <!-- TM -->
     <g transform="translate(458.276562 45.398438)scale(0.1 -0.1)">
      <defs>
       <path d="M -0.296875 72.90625 
L 61.375 72.90625 
L 61.375 64.59375 
L 35.5 64.59375 
L 35.5 0 
L 25.59375 0 
L 25.59375 64.59375 
L -0.296875 64.59375 
z
" id="DejaVuSans-84"/>
      </defs>
      <use xlink:href="#DejaVuSans-84"/>
      <use x="61.083984" xlink:href="#DejaVuSans-77"/>
     </g>
    </g>
    <g id="line2d_18">
     <path d="M 430.276562 56.576563 
L 450.276562 56.576563 
" style="fill:none;stroke:#483d8b;stroke-dasharray:5.55,2.4;stroke-dashoffset:0;stroke-width:1.5;"/>
    </g>
    <g id="line2d_19"/>
    <g id="text_18">
     <!-- TE -->
     <g transform="translate(458.276562 60.076563)scale(0.1 -0.1)">
      <defs>
       <path d="M 9.8125 72.90625 
L 55.90625 72.90625 
L 55.90625 64.59375 
L 19.671875 64.59375 
L 19.671875 43.015625 
L 54.390625 43.015625 
L 54.390625 34.71875 
L 19.671875 34.71875 
L 19.671875 8.296875 
L 56.78125 8.296875 
L 56.78125 0 
L 9.8125 0 
z
" id="DejaVuSans-69"/>
      </defs>
      <use xlink:href="#DejaVuSans-84"/>
      <use x="61.083984" xlink:href="#DejaVuSans-69"/>
     </g>
    </g>
   </g>
  </g>
 </g>
 <defs>
  <clipPath id="pb58d06e692">
   <rect height="358.4" width="434.2125" x="47.8" y="28.8"/>
  </clipPath>
 </defs>
</svg>
