<?xml version="1.0" encoding="utf-8" standalone="no"?>
<!DOCTYPE svg PUBLIC "-//W3C//DTD SVG 1.1//EN"
  "http://www.w3.org/Graphics/SVG/1.1/DTD/svg11.dtd">
<!-- Created with matplotlib (https://matplotlib.org/) -->
<svg height="432pt" version="1.1" viewBox="0 0 504 432" width="504pt" xmlns="http://www.w3.org/2000/svg" xmlns:xlink="http://www.w3.org/1999/xlink">
 <metadata>
  <rdf:RDF xmlns:cc="http://creativecommons.org/ns#" xmlns:dc="http://purl.org/dc/elements/1.1/" xmlns:rdf="http://www.w3.org/1999/02/22-rdf-syntax-ns#">
   <cc:Work>
    <dc:type rdf:resource="http://purl.org/dc/dcmitype/StillImage"/>
    <dc:date>2022-08-05T08:48:41.762915</dc:date>
    <dc:format>image/svg+xml</dc:format>
    <dc:creator>
     <cc:Agent>
      <dc:title>Matplotlib v3.3.4, https://matplotlib.org/</dc:title>
     </cc:Agent>
    </dc:creator>
   </cc:Work>
  </rdf:RDF>
 </metadata>
 <defs>
  <style type="text/css">*{stroke-linecap:butt;stroke-linejoin:round;}</style>
 </defs>
 <g id="figure_1">
  <g id="patch_1">
   <path d="M 0 432 
L 504 432 
L 504 0 
L 0 0 
z
" style="fill:none;"/>
  </g>
  <g id="axes_1">
   <g id="patch_2">
    <path d="M 47.8 387.2 
L 485.2 387.2 
L 485.2 28.8 
L 47.8 28.8 
z
" style="fill:#ffffff;"/>
   </g>
   <g id="matplotlib.axis_1">
    <g id="xtick_1">
     <g id="line2d_1">
      <defs>
       <path d="M 0 0 
L 0 3.5 
" id="mc8f1576afa" style="stroke:#000000;stroke-width:0.8;"/>
      </defs>
      <g>
       <use style="stroke:#000000;stroke-width:0.8;" x="47.8" xlink:href="#mc8f1576afa" y="387.2"/>
      </g>
     </g>
     <g id="text_1">
      <!-- 0.0 -->
      <g transform="translate(39.848438 401.798437)scale(0.1 -0.1)">
       <defs>
        <path d="M 31.78125 66.40625 
Q 24.171875 66.40625 20.328125 58.90625 
Q 16.5 51.421875 16.5 36.375 
Q 16.5 21.390625 20.328125 13.890625 
Q 24.171875 6.390625 31.78125 6.390625 
Q 39.453125 6.390625 43.28125 13.890625 
Q 47.125 21.390625 47.125 36.375 
Q 47.125 51.421875 43.28125 58.90625 
Q 39.453125 66.40625 31.78125 66.40625 
z
M 31.78125 74.21875 
Q 44.046875 74.21875 50.515625 64.515625 
Q 56.984375 54.828125 56.984375 36.375 
Q 56.984375 17.96875 50.515625 8.265625 
Q 44.046875 -1.421875 31.78125 -1.421875 
Q 19.53125 -1.421875 13.0625 8.265625 
Q 6.59375 17.96875 6.59375 36.375 
Q 6.59375 54.828125 13.0625 64.515625 
Q 19.53125 74.21875 31.78125 74.21875 
z
" id="DejaVuSans-48"/>
        <path d="M 10.6875 12.40625 
L 21 12.40625 
L 21 0 
L 10.6875 0 
z
" id="DejaVuSans-46"/>
       </defs>
       <use xlink:href="#DejaVuSans-48"/>
       <use x="63.623047" xlink:href="#DejaVuSans-46"/>
       <use x="95.410156" xlink:href="#DejaVuSans-48"/>
      </g>
     </g>
    </g>
    <g id="xtick_2">
     <g id="line2d_2">
      <g>
       <use style="stroke:#000000;stroke-width:0.8;" x="135.28" xlink:href="#mc8f1576afa" y="387.2"/>
      </g>
     </g>
     <g id="text_2">
      <!-- 0.2 -->
      <g transform="translate(127.328438 401.798437)scale(0.1 -0.1)">
       <defs>
        <path d="M 19.1875 8.296875 
L 53.609375 8.296875 
L 53.609375 0 
L 7.328125 0 
L 7.328125 8.296875 
Q 12.9375 14.109375 22.625 23.890625 
Q 32.328125 33.6875 34.8125 36.53125 
Q 39.546875 41.84375 41.421875 45.53125 
Q 43.3125 49.21875 43.3125 52.78125 
Q 43.3125 58.59375 39.234375 62.25 
Q 35.15625 65.921875 28.609375 65.921875 
Q 23.96875 65.921875 18.8125 64.3125 
Q 13.671875 62.703125 7.8125 59.421875 
L 7.8125 69.390625 
Q 13.765625 71.78125 18.9375 73 
Q 24.125 74.21875 28.421875 74.21875 
Q 39.75 74.21875 46.484375 68.546875 
Q 53.21875 62.890625 53.21875 53.421875 
Q 53.21875 48.921875 51.53125 44.890625 
Q 49.859375 40.875 45.40625 35.40625 
Q 44.1875 33.984375 37.640625 27.21875 
Q 31.109375 20.453125 19.1875 8.296875 
z
" id="DejaVuSans-50"/>
       </defs>
       <use xlink:href="#DejaVuSans-48"/>
       <use x="63.623047" xlink:href="#DejaVuSans-46"/>
       <use x="95.410156" xlink:href="#DejaVuSans-50"/>
      </g>
     </g>
    </g>
    <g id="xtick_3">
     <g id="line2d_3">
      <g>
       <use style="stroke:#000000;stroke-width:0.8;" x="222.76" xlink:href="#mc8f1576afa" y="387.2"/>
      </g>
     </g>
     <g id="text_3">
      <!-- 0.4 -->
      <g transform="translate(214.808438 401.798437)scale(0.1 -0.1)">
       <defs>
        <path d="M 37.796875 64.3125 
L 12.890625 25.390625 
L 37.796875 25.390625 
z
M 35.203125 72.90625 
L 47.609375 72.90625 
L 47.609375 25.390625 
L 58.015625 25.390625 
L 58.015625 17.1875 
L 47.609375 17.1875 
L 47.609375 0 
L 37.796875 0 
L 37.796875 17.1875 
L 4.890625 17.1875 
L 4.890625 26.703125 
z
" id="DejaVuSans-52"/>
       </defs>
       <use xlink:href="#DejaVuSans-48"/>
       <use x="63.623047" xlink:href="#DejaVuSans-46"/>
       <use x="95.410156" xlink:href="#DejaVuSans-52"/>
      </g>
     </g>
    </g>
    <g id="xtick_4">
     <g id="line2d_4">
      <g>
       <use style="stroke:#000000;stroke-width:0.8;" x="310.24" xlink:href="#mc8f1576afa" y="387.2"/>
      </g>
     </g>
     <g id="text_4">
      <!-- 0.6 -->
      <g transform="translate(302.288437 401.798437)scale(0.1 -0.1)">
       <defs>
        <path d="M 33.015625 40.375 
Q 26.375 40.375 22.484375 35.828125 
Q 18.609375 31.296875 18.609375 23.390625 
Q 18.609375 15.53125 22.484375 10.953125 
Q 26.375 6.390625 33.015625 6.390625 
Q 39.65625 6.390625 43.53125 10.953125 
Q 47.40625 15.53125 47.40625 23.390625 
Q 47.40625 31.296875 43.53125 35.828125 
Q 39.65625 40.375 33.015625 40.375 
z
M 52.59375 71.296875 
L 52.59375 62.3125 
Q 48.875 64.0625 45.09375 64.984375 
Q 41.3125 65.921875 37.59375 65.921875 
Q 27.828125 65.921875 22.671875 59.328125 
Q 17.53125 52.734375 16.796875 39.40625 
Q 19.671875 43.65625 24.015625 45.921875 
Q 28.375 48.1875 33.59375 48.1875 
Q 44.578125 48.1875 50.953125 41.515625 
Q 57.328125 34.859375 57.328125 23.390625 
Q 57.328125 12.15625 50.6875 5.359375 
Q 44.046875 -1.421875 33.015625 -1.421875 
Q 20.359375 -1.421875 13.671875 8.265625 
Q 6.984375 17.96875 6.984375 36.375 
Q 6.984375 53.65625 15.1875 63.9375 
Q 23.390625 74.21875 37.203125 74.21875 
Q 40.921875 74.21875 44.703125 73.484375 
Q 48.484375 72.75 52.59375 71.296875 
z
" id="DejaVuSans-54"/>
       </defs>
       <use xlink:href="#DejaVuSans-48"/>
       <use x="63.623047" xlink:href="#DejaVuSans-46"/>
       <use x="95.410156" xlink:href="#DejaVuSans-54"/>
      </g>
     </g>
    </g>
    <g id="xtick_5">
     <g id="line2d_5">
      <g>
       <use style="stroke:#000000;stroke-width:0.8;" x="397.72" xlink:href="#mc8f1576afa" y="387.2"/>
      </g>
     </g>
     <g id="text_5">
      <!-- 0.8 -->
      <g transform="translate(389.768438 401.798437)scale(0.1 -0.1)">
       <defs>
        <path d="M 31.78125 34.625 
Q 24.75 34.625 20.71875 30.859375 
Q 16.703125 27.09375 16.703125 20.515625 
Q 16.703125 13.921875 20.71875 10.15625 
Q 24.75 6.390625 31.78125 6.390625 
Q 38.8125 6.390625 42.859375 10.171875 
Q 46.921875 13.96875 46.921875 20.515625 
Q 46.921875 27.09375 42.890625 30.859375 
Q 38.875 34.625 31.78125 34.625 
z
M 21.921875 38.8125 
Q 15.578125 40.375 12.03125 44.71875 
Q 8.5 49.078125 8.5 55.328125 
Q 8.5 64.0625 14.71875 69.140625 
Q 20.953125 74.21875 31.78125 74.21875 
Q 42.671875 74.21875 48.875 69.140625 
Q 55.078125 64.0625 55.078125 55.328125 
Q 55.078125 49.078125 51.53125 44.71875 
Q 48 40.375 41.703125 38.8125 
Q 48.828125 37.15625 52.796875 32.3125 
Q 56.78125 27.484375 56.78125 20.515625 
Q 56.78125 9.90625 50.3125 4.234375 
Q 43.84375 -1.421875 31.78125 -1.421875 
Q 19.734375 -1.421875 13.25 4.234375 
Q 6.78125 9.90625 6.78125 20.515625 
Q 6.78125 27.484375 10.78125 32.3125 
Q 14.796875 37.15625 21.921875 38.8125 
z
M 18.3125 54.390625 
Q 18.3125 48.734375 21.84375 45.5625 
Q 25.390625 42.390625 31.78125 42.390625 
Q 38.140625 42.390625 41.71875 45.5625 
Q 45.3125 48.734375 45.3125 54.390625 
Q 45.3125 60.0625 41.71875 63.234375 
Q 38.140625 66.40625 31.78125 66.40625 
Q 25.390625 66.40625 21.84375 63.234375 
Q 18.3125 60.0625 18.3125 54.390625 
z
" id="DejaVuSans-56"/>
       </defs>
       <use xlink:href="#DejaVuSans-48"/>
       <use x="63.623047" xlink:href="#DejaVuSans-46"/>
       <use x="95.410156" xlink:href="#DejaVuSans-56"/>
      </g>
     </g>
    </g>
    <g id="xtick_6">
     <g id="line2d_6">
      <g>
       <use style="stroke:#000000;stroke-width:0.8;" x="485.2" xlink:href="#mc8f1576afa" y="387.2"/>
      </g>
     </g>
     <g id="text_6">
      <!-- 1.0 -->
      <g transform="translate(477.248437 401.798437)scale(0.1 -0.1)">
       <defs>
        <path d="M 12.40625 8.296875 
L 28.515625 8.296875 
L 28.515625 63.921875 
L 10.984375 60.40625 
L 10.984375 69.390625 
L 28.421875 72.90625 
L 38.28125 72.90625 
L 38.28125 8.296875 
L 54.390625 8.296875 
L 54.390625 0 
L 12.40625 0 
z
" id="DejaVuSans-49"/>
       </defs>
       <use xlink:href="#DejaVuSans-49"/>
       <use x="63.623047" xlink:href="#DejaVuSans-46"/>
       <use x="95.410156" xlink:href="#DejaVuSans-48"/>
      </g>
     </g>
    </g>
    <g id="text_7">
     <!-- $\omega a/2\pi c$ -->
     <g transform="translate(248.8 415.476562)scale(0.1 -0.1)">
      <defs>
       <path d="M 21.390625 -1.421875 
Q 1.125 -1.421875 6.78125 27.59375 
Q 8.984375 39.0625 19.625 54.6875 
L 29.296875 54.6875 
Q 19.234375 39.0625 17 27.34375 
Q 12.796875 6.203125 23.734375 6.203125 
Q 33.84375 6.203125 38.71875 32.46875 
L 47.015625 32.46875 
Q 41.703125 6.0625 51.8125 6.203125 
Q 62.703125 6.296875 66.796875 27.34375 
Q 69.046875 39.0625 65.140625 54.6875 
L 74.8125 54.6875 
Q 79.296875 39.0625 77.09375 27.59375 
Q 71.53125 -1.46875 51.21875 -1.421875 
Q 37.9375 -1.375 39.109375 13.1875 
Q 34.28125 -1.421875 21.390625 -1.421875 
z
" id="DejaVuSans-Oblique-969"/>
       <path d="M 53.71875 31.203125 
L 47.609375 0 
L 38.625 0 
L 40.28125 8.296875 
Q 36.328125 3.421875 31.265625 1 
Q 26.21875 -1.421875 20.015625 -1.421875 
Q 13.03125 -1.421875 8.5625 2.84375 
Q 4.109375 7.125 4.109375 13.8125 
Q 4.109375 23.390625 11.75 28.953125 
Q 19.390625 34.515625 32.8125 34.515625 
L 45.3125 34.515625 
L 45.796875 36.921875 
Q 45.90625 37.3125 45.953125 37.765625 
Q 46 38.234375 46 39.203125 
Q 46 43.5625 42.453125 45.96875 
Q 38.921875 48.390625 32.515625 48.390625 
Q 28.125 48.390625 23.5 47.265625 
Q 18.890625 46.140625 14.015625 43.890625 
L 15.578125 52.203125 
Q 20.65625 54.109375 25.515625 55.046875 
Q 30.375 56 34.90625 56 
Q 44.578125 56 49.625 51.796875 
Q 54.6875 47.609375 54.6875 39.59375 
Q 54.6875 37.984375 54.4375 35.8125 
Q 54.203125 33.640625 53.71875 31.203125 
z
M 44 27.484375 
L 35.015625 27.484375 
Q 23.96875 27.484375 18.671875 24.53125 
Q 13.375 21.578125 13.375 15.375 
Q 13.375 11.078125 16.078125 8.640625 
Q 18.796875 6.203125 23.578125 6.203125 
Q 30.90625 6.203125 36.375 11.453125 
Q 41.84375 16.703125 43.609375 25.484375 
z
" id="DejaVuSans-Oblique-97"/>
       <path d="M 25.390625 72.90625 
L 33.6875 72.90625 
L 8.296875 -9.28125 
L 0 -9.28125 
z
" id="DejaVuSans-47"/>
       <path d="M 9.125 54.6875 
L 61.53125 54.6875 
L 59.765625 45.703125 
L 52.875 45.703125 
L 46.34375 12.109375 
Q 45.65625 8.59375 46.578125 7.03125 
Q 47.46875 5.515625 50.140625 5.515625 
Q 50.875 5.515625 51.953125 5.671875 
Q 53.078125 5.765625 53.421875 5.8125 
L 52.15625 -0.6875 
Q 50.34375 -1.3125 48.484375 -1.609375 
Q 46.578125 -1.90625 44.78125 -1.90625 
Q 38.921875 -1.90625 37.3125 1.265625 
Q 35.6875 4.5 37.359375 13.09375 
L 43.703125 45.703125 
L 23.53125 45.703125 
L 14.65625 0 
L 5.46875 0 
L 14.359375 45.703125 
L 7.375 45.703125 
z
" id="DejaVuSans-Oblique-960"/>
       <path d="M 53.609375 52.59375 
L 51.8125 43.703125 
Q 48.578125 46.046875 44.9375 47.21875 
Q 41.3125 48.390625 37.40625 48.390625 
Q 33.109375 48.390625 29.21875 46.875 
Q 25.34375 45.359375 22.703125 42.578125 
Q 18.5 38.328125 16.203125 32.609375 
Q 13.921875 26.90625 13.921875 20.796875 
Q 13.921875 13.421875 17.609375 9.8125 
Q 21.296875 6.203125 28.8125 6.203125 
Q 32.515625 6.203125 36.6875 7.328125 
Q 40.875 8.453125 45.40625 10.6875 
L 43.703125 1.8125 
Q 39.796875 0.203125 35.671875 -0.609375 
Q 31.546875 -1.421875 27.203125 -1.421875 
Q 16.3125 -1.421875 10.453125 4.015625 
Q 4.59375 9.46875 4.59375 19.578125 
Q 4.59375 28.078125 7.640625 35.234375 
Q 10.6875 42.390625 16.703125 48.09375 
Q 20.796875 52 26.3125 54 
Q 31.84375 56 38.375 56 
Q 42.1875 56 45.9375 55.140625 
Q 49.703125 54.296875 53.609375 52.59375 
z
" id="DejaVuSans-Oblique-99"/>
      </defs>
      <use transform="translate(0 0.78125)" xlink:href="#DejaVuSans-Oblique-969"/>
      <use transform="translate(83.740234 0.78125)" xlink:href="#DejaVuSans-Oblique-97"/>
      <use transform="translate(145.019531 0.78125)" xlink:href="#DejaVuSans-47"/>
      <use transform="translate(175.085938 0.78125)" xlink:href="#DejaVuSans-50"/>
      <use transform="translate(238.708984 0.78125)" xlink:href="#DejaVuSans-Oblique-960"/>
      <use transform="translate(298.914062 0.78125)" xlink:href="#DejaVuSans-Oblique-99"/>
     </g>
    </g>
   </g>
   <g id="matplotlib.axis_2">
    <g id="ytick_1">
     <g id="line2d_7">
      <defs>
       <path d="M 0 0 
L -3.5 0 
" id="m54dd7d3f83" style="stroke:#000000;stroke-width:0.8;"/>
      </defs>
      <g>
       <use style="stroke:#000000;stroke-width:0.8;" x="47.8" xlink:href="#m54dd7d3f83" y="387.2"/>
      </g>
     </g>
     <g id="text_8">
      <!-- 0.0 -->
      <g transform="translate(24.896875 390.999219)scale(0.1 -0.1)">
       <use xlink:href="#DejaVuSans-48"/>
       <use x="63.623047" xlink:href="#DejaVuSans-46"/>
       <use x="95.410156" xlink:href="#DejaVuSans-48"/>
      </g>
     </g>
    </g>
    <g id="ytick_2">
     <g id="line2d_8">
      <g>
       <use style="stroke:#000000;stroke-width:0.8;" x="47.8" xlink:href="#m54dd7d3f83" y="316.229703"/>
      </g>
     </g>
     <g id="text_9">
      <!-- 0.2 -->
      <g transform="translate(24.896875 320.028922)scale(0.1 -0.1)">
       <use xlink:href="#DejaVuSans-48"/>
       <use x="63.623047" xlink:href="#DejaVuSans-46"/>
       <use x="95.410156" xlink:href="#DejaVuSans-50"/>
      </g>
     </g>
    </g>
    <g id="ytick_3">
     <g id="line2d_9">
      <g>
       <use style="stroke:#000000;stroke-width:0.8;" x="47.8" xlink:href="#m54dd7d3f83" y="245.259406"/>
      </g>
     </g>
     <g id="text_10">
      <!-- 0.4 -->
      <g transform="translate(24.896875 249.058625)scale(0.1 -0.1)">
       <use xlink:href="#DejaVuSans-48"/>
       <use x="63.623047" xlink:href="#DejaVuSans-46"/>
       <use x="95.410156" xlink:href="#DejaVuSans-52"/>
      </g>
     </g>
    </g>
    <g id="ytick_4">
     <g id="line2d_10">
      <g>
       <use style="stroke:#000000;stroke-width:0.8;" x="47.8" xlink:href="#m54dd7d3f83" y="174.289109"/>
      </g>
     </g>
     <g id="text_11">
      <!-- 0.6 -->
      <g transform="translate(24.896875 178.088328)scale(0.1 -0.1)">
       <use xlink:href="#DejaVuSans-48"/>
       <use x="63.623047" xlink:href="#DejaVuSans-46"/>
       <use x="95.410156" xlink:href="#DejaVuSans-54"/>
      </g>
     </g>
    </g>
    <g id="ytick_5">
     <g id="line2d_11">
      <g>
       <use style="stroke:#000000;stroke-width:0.8;" x="47.8" xlink:href="#m54dd7d3f83" y="103.318812"/>
      </g>
     </g>
     <g id="text_12">
      <!-- 0.8 -->
      <g transform="translate(24.896875 107.118031)scale(0.1 -0.1)">
       <use xlink:href="#DejaVuSans-48"/>
       <use x="63.623047" xlink:href="#DejaVuSans-46"/>
       <use x="95.410156" xlink:href="#DejaVuSans-56"/>
      </g>
     </g>
    </g>
    <g id="ytick_6">
     <g id="line2d_12">
      <g>
       <use style="stroke:#000000;stroke-width:0.8;" x="47.8" xlink:href="#m54dd7d3f83" y="32.348515"/>
      </g>
     </g>
     <g id="text_13">
      <!-- 1.0 -->
      <g transform="translate(24.896875 36.147734)scale(0.1 -0.1)">
       <use xlink:href="#DejaVuSans-49"/>
       <use x="63.623047" xlink:href="#DejaVuSans-46"/>
       <use x="95.410156" xlink:href="#DejaVuSans-48"/>
      </g>
     </g>
    </g>
    <g id="text_14">
     <!-- Reflection -->
     <g transform="translate(18.817187 232.878125)rotate(-90)scale(0.1 -0.1)">
      <defs>
       <path d="M 44.390625 34.1875 
Q 47.5625 33.109375 50.5625 29.59375 
Q 53.5625 26.078125 56.59375 19.921875 
L 66.609375 0 
L 56 0 
L 46.6875 18.703125 
Q 43.0625 26.03125 39.671875 28.421875 
Q 36.28125 30.8125 30.421875 30.8125 
L 19.671875 30.8125 
L 19.671875 0 
L 9.8125 0 
L 9.8125 72.90625 
L 32.078125 72.90625 
Q 44.578125 72.90625 50.734375 67.671875 
Q 56.890625 62.453125 56.890625 51.90625 
Q 56.890625 45.015625 53.6875 40.46875 
Q 50.484375 35.9375 44.390625 34.1875 
z
M 19.671875 64.796875 
L 19.671875 38.921875 
L 32.078125 38.921875 
Q 39.203125 38.921875 42.84375 42.21875 
Q 46.484375 45.515625 46.484375 51.90625 
Q 46.484375 58.296875 42.84375 61.546875 
Q 39.203125 64.796875 32.078125 64.796875 
z
" id="DejaVuSans-82"/>
       <path d="M 56.203125 29.59375 
L 56.203125 25.203125 
L 14.890625 25.203125 
Q 15.484375 15.921875 20.484375 11.0625 
Q 25.484375 6.203125 34.421875 6.203125 
Q 39.59375 6.203125 44.453125 7.46875 
Q 49.3125 8.734375 54.109375 11.28125 
L 54.109375 2.78125 
Q 49.265625 0.734375 44.1875 -0.34375 
Q 39.109375 -1.421875 33.890625 -1.421875 
Q 20.796875 -1.421875 13.15625 6.1875 
Q 5.515625 13.8125 5.515625 26.8125 
Q 5.515625 40.234375 12.765625 48.109375 
Q 20.015625 56 32.328125 56 
Q 43.359375 56 49.78125 48.890625 
Q 56.203125 41.796875 56.203125 29.59375 
z
M 47.21875 32.234375 
Q 47.125 39.59375 43.09375 43.984375 
Q 39.0625 48.390625 32.421875 48.390625 
Q 24.90625 48.390625 20.390625 44.140625 
Q 15.875 39.890625 15.1875 32.171875 
z
" id="DejaVuSans-101"/>
       <path d="M 37.109375 75.984375 
L 37.109375 68.5 
L 28.515625 68.5 
Q 23.6875 68.5 21.796875 66.546875 
Q 19.921875 64.59375 19.921875 59.515625 
L 19.921875 54.6875 
L 34.71875 54.6875 
L 34.71875 47.703125 
L 19.921875 47.703125 
L 19.921875 0 
L 10.890625 0 
L 10.890625 47.703125 
L 2.296875 47.703125 
L 2.296875 54.6875 
L 10.890625 54.6875 
L 10.890625 58.5 
Q 10.890625 67.625 15.140625 71.796875 
Q 19.390625 75.984375 28.609375 75.984375 
z
" id="DejaVuSans-102"/>
       <path d="M 9.421875 75.984375 
L 18.40625 75.984375 
L 18.40625 0 
L 9.421875 0 
z
" id="DejaVuSans-108"/>
       <path d="M 48.78125 52.59375 
L 48.78125 44.1875 
Q 44.96875 46.296875 41.140625 47.34375 
Q 37.3125 48.390625 33.40625 48.390625 
Q 24.65625 48.390625 19.8125 42.84375 
Q 14.984375 37.3125 14.984375 27.296875 
Q 14.984375 17.28125 19.8125 11.734375 
Q 24.65625 6.203125 33.40625 6.203125 
Q 37.3125 6.203125 41.140625 7.25 
Q 44.96875 8.296875 48.78125 10.40625 
L 48.78125 2.09375 
Q 45.015625 0.34375 40.984375 -0.53125 
Q 36.96875 -1.421875 32.421875 -1.421875 
Q 20.0625 -1.421875 12.78125 6.34375 
Q 5.515625 14.109375 5.515625 27.296875 
Q 5.515625 40.671875 12.859375 48.328125 
Q 20.21875 56 33.015625 56 
Q 37.15625 56 41.109375 55.140625 
Q 45.0625 54.296875 48.78125 52.59375 
z
" id="DejaVuSans-99"/>
       <path d="M 18.3125 70.21875 
L 18.3125 54.6875 
L 36.8125 54.6875 
L 36.8125 47.703125 
L 18.3125 47.703125 
L 18.3125 18.015625 
Q 18.3125 11.328125 20.140625 9.421875 
Q 21.96875 7.515625 27.59375 7.515625 
L 36.8125 7.515625 
L 36.8125 0 
L 27.59375 0 
Q 17.1875 0 13.234375 3.875 
Q 9.28125 7.765625 9.28125 18.015625 
L 9.28125 47.703125 
L 2.6875 47.703125 
L 2.6875 54.6875 
L 9.28125 54.6875 
L 9.28125 70.21875 
z
" id="DejaVuSans-116"/>
       <path d="M 9.421875 54.6875 
L 18.40625 54.6875 
L 18.40625 0 
L 9.421875 0 
z
M 9.421875 75.984375 
L 18.40625 75.984375 
L 18.40625 64.59375 
L 9.421875 64.59375 
z
" id="DejaVuSans-105"/>
       <path d="M 30.609375 48.390625 
Q 23.390625 48.390625 19.1875 42.75 
Q 14.984375 37.109375 14.984375 27.296875 
Q 14.984375 17.484375 19.15625 11.84375 
Q 23.34375 6.203125 30.609375 6.203125 
Q 37.796875 6.203125 41.984375 11.859375 
Q 46.1875 17.53125 46.1875 27.296875 
Q 46.1875 37.015625 41.984375 42.703125 
Q 37.796875 48.390625 30.609375 48.390625 
z
M 30.609375 56 
Q 42.328125 56 49.015625 48.375 
Q 55.71875 40.765625 55.71875 27.296875 
Q 55.71875 13.875 49.015625 6.21875 
Q 42.328125 -1.421875 30.609375 -1.421875 
Q 18.84375 -1.421875 12.171875 6.21875 
Q 5.515625 13.875 5.515625 27.296875 
Q 5.515625 40.765625 12.171875 48.375 
Q 18.84375 56 30.609375 56 
z
" id="DejaVuSans-111"/>
       <path d="M 54.890625 33.015625 
L 54.890625 0 
L 45.90625 0 
L 45.90625 32.71875 
Q 45.90625 40.484375 42.875 44.328125 
Q 39.84375 48.1875 33.796875 48.1875 
Q 26.515625 48.1875 22.3125 43.546875 
Q 18.109375 38.921875 18.109375 30.90625 
L 18.109375 0 
L 9.078125 0 
L 9.078125 54.6875 
L 18.109375 54.6875 
L 18.109375 46.1875 
Q 21.34375 51.125 25.703125 53.5625 
Q 30.078125 56 35.796875 56 
Q 45.21875 56 50.046875 50.171875 
Q 54.890625 44.34375 54.890625 33.015625 
z
" id="DejaVuSans-110"/>
      </defs>
      <use xlink:href="#DejaVuSans-82"/>
      <use x="64.982422" xlink:href="#DejaVuSans-101"/>
      <use x="126.505859" xlink:href="#DejaVuSans-102"/>
      <use x="161.710938" xlink:href="#DejaVuSans-108"/>
      <use x="189.494141" xlink:href="#DejaVuSans-101"/>
      <use x="251.017578" xlink:href="#DejaVuSans-99"/>
      <use x="305.998047" xlink:href="#DejaVuSans-116"/>
      <use x="345.207031" xlink:href="#DejaVuSans-105"/>
      <use x="372.990234" xlink:href="#DejaVuSans-111"/>
      <use x="434.171875" xlink:href="#DejaVuSans-110"/>
     </g>
    </g>
   </g>
   <g id="line2d_13">
    <path clip-path="url(#p19789e4942)" d="M 48.2374 385.202944 
L 49.113077 370.554708 
L 51.740106 301.731197 
L 52.615783 287.754697 
L 53.491459 281.485367 
L 54.367136 283.180358 
L 55.242812 292.809497 
L 56.118489 309.931592 
L 58.745519 378.788138 
L 59.621195 387.193813 
L 60.496872 379.557813 
L 61.372548 359.040422 
L 63.123901 309.043815 
L 63.999578 290.729567 
L 64.875255 280.018961 
L 65.750931 277.464401 
L 66.626608 283.200167 
L 67.502284 297.126025 
L 68.377961 318.454651 
L 70.129314 369.763582 
L 71.00499 385.398337 
L 71.880667 384.360711 
L 72.756343 366.705548 
L 74.507697 312.10183 
L 75.383373 289.723902 
L 76.25905 275.189159 
L 77.134726 269.321881 
L 78.010403 272.348171 
L 78.886079 284.372909 
L 79.761756 305.111493 
L 81.513109 361.944534 
L 82.388786 382.978609 
L 83.264462 385.652796 
L 84.140139 367.741457 
L 86.767168 279.908797 
L 87.642845 263.157083 
L 88.518521 256.145787 
L 89.394198 259.056301 
L 90.269875 272.180239 
L 91.145551 295.628471 
L 92.896904 361.947097 
L 93.772581 384.714579 
L 94.648257 382.294803 
L 95.523934 354.627473 
L 97.275287 279.996108 
L 98.150964 254.002107 
L 99.02664 239.453484 
L 99.902317 236.34586 
L 100.777993 244.928111 
L 101.65367 266.12687 
L 102.529346 300.407903 
L 103.405023 343.59055 
L 104.280699 379.679701 
L 105.156376 383.823386 
L 106.032053 349.542452 
L 107.783406 254.917709 
L 108.659082 225.169115 
L 109.534759 210.090838 
L 110.410435 208.79409 
L 111.286112 221.946468 
L 112.161788 252.310308 
L 113.037465 302.239652 
L 113.913141 361.240427 
L 114.788818 386.695065 
L 115.664495 344.407224 
L 116.540171 273.136983 
L 117.415848 216.774332 
L 118.291524 183.680907 
L 119.167201 169.881077 
L 120.042877 173.100456 
L 120.918554 196.486798 
L 121.79423 250.361867 
L 122.669907 339.898173 
L 123.545584 384.30329 
L 125.296937 192.732172 
L 126.172613 142.046587 
L 127.04829 122.454468 
L 127.923966 124.565604 
L 128.799643 156.596261 
L 130.550996 373.246087 
L 131.426673 166.000088 
L 132.302349 88.612637 
L 133.178026 70.536546 
L 134.053702 82.827493 
L 134.929379 367.17991 
L 135.805055 47.01561 
L 136.680732 34.120669 
L 137.556408 32.757952 
L 138.432085 32.475067 
L 140.183438 32.367709 
L 150.691557 32.348538 
L 244.388948 32.449105 
L 245.264624 32.67218 
L 246.140301 33.73983 
L 247.015978 43.769218 
L 247.891654 369.776364 
L 248.767331 74.13401 
L 249.643007 63.359502 
L 250.518684 78.323743 
L 251.39436 146.9756 
L 252.270037 370.502814 
L 253.145713 243.798908 
L 254.02139 136.308454 
L 254.897067 107.855886 
L 255.772743 106.086162 
L 256.64842 123.560032 
L 257.524096 171.261753 
L 259.275449 384.845193 
L 260.151126 321.719947 
L 261.026802 221.23865 
L 261.902479 168.675802 
L 262.778156 147.484909 
L 263.653832 145.063293 
L 264.529509 158.498433 
L 265.405185 191.57095 
L 266.280862 252.427614 
L 267.156538 337.44706 
L 268.032215 387.175975 
L 268.907891 344.420459 
L 269.783568 270.067147 
L 270.659244 216.400386 
L 271.534921 186.963194 
L 272.410598 175.320038 
L 273.286274 177.725924 
L 274.161951 194.021872 
L 275.037627 226.908479 
L 275.913304 279.299872 
L 276.78898 343.794947 
L 277.664657 385.635675 
L 278.540333 368.295024 
L 280.291687 258.35642 
L 281.167363 221.458558 
L 282.04304 201.085034 
L 282.918716 194.261061 
L 283.794393 199.514139 
L 284.670069 217.352337 
L 285.545746 249.668075 
L 286.421422 297.076499 
L 287.297099 351.102162 
L 288.172776 385.423269 
L 289.048452 374.033751 
L 291.675482 238.66294 
L 292.551158 214.692243 
L 293.426835 203.533768 
L 294.302511 203.721091 
L 295.178188 215.186333 
L 296.053865 239.212249 
L 296.929541 277.254424 
L 298.680894 372.415423 
L 299.556571 386.324768 
L 300.432247 356.786784 
L 302.1836 258.568044 
L 303.059277 224.757701 
L 303.934954 204.547334 
L 304.81063 196.120696 
L 305.686307 198.483099 
L 306.561983 212.163652 
L 307.43766 239.166115 
L 308.313336 281.595998 
L 309.189013 335.848349 
L 310.064689 380.371532 
L 310.940366 379.59644 
L 311.816042 330.412721 
L 312.691719 268.611238 
L 313.567396 219.40993 
L 314.443072 187.209208 
L 315.318749 169.19255 
L 316.194425 162.678649 
L 317.070102 167.046713 
L 317.945778 184.483037 
L 318.821455 221.074235 
L 319.697131 285.94249 
L 320.572808 367.736235 
L 321.448485 370.001307 
L 323.199838 160.017124 
L 324.075514 106.618701 
L 324.951191 79.127075 
L 325.826867 64.232676 
L 326.702544 55.630058 
L 327.57822 50.38348 
L 328.453897 47.055373 
L 329.329574 44.899708 
L 330.20525 43.509999 
L 331.080927 42.658044 
L 331.956603 42.216413 
L 332.83228 42.120138 
L 333.707956 42.348343 
L 334.583633 42.917394 
L 335.459309 43.882309 
L 336.334986 45.346132 
L 337.210663 47.479447 
L 338.086339 50.555043 
L 338.962016 55.006786 
L 339.837692 61.527055 
L 340.713369 71.221147 
L 341.589045 85.826029 
L 342.464722 107.925187 
L 343.340398 140.821813 
L 344.216075 187.135449 
L 345.967428 304.054932 
L 346.843105 349.65643 
L 347.718781 375.019907 
L 348.594458 384.770643 
L 349.470134 387.032094 
L 350.345811 387.197914 
L 351.221487 387.198057 
L 352.097164 386.933448 
L 352.97284 385.744601 
L 353.848517 383.370817 
L 355.59987 377.495521 
L 356.475547 376.050263 
L 357.351223 376.60536 
L 358.2269 379.126881 
L 359.978253 386.064206 
L 360.853929 387.160967 
L 361.729606 384.682929 
L 362.605283 378.340315 
L 365.232312 350.621877 
L 366.107989 345.247291 
L 366.983665 344.25597 
L 367.859342 348.068071 
L 368.735018 356.246359 
L 370.486372 378.400236 
L 371.362048 385.907142 
L 372.237725 386.406573 
L 373.113401 378.624881 
L 373.989078 364.313305 
L 375.740431 331.650194 
L 376.616107 320.397327 
L 377.491784 315.360161 
L 378.367461 317.402279 
L 379.243137 326.611936 
L 380.118814 342.049312 
L 381.870167 378.295995 
L 382.745843 387.009541 
L 383.62152 382.06676 
L 384.497196 364.187188 
L 386.248549 315.458757 
L 387.124226 297.046274 
L 387.999903 286.92391 
L 388.875579 286.23467 
L 389.751256 295.492815 
L 390.626932 314.558791 
L 392.378285 369.313201 
L 393.253962 386.234893 
L 394.129638 380.588594 
L 395.005315 353.027944 
L 396.756668 283.257453 
L 397.632345 260.445125 
L 398.508021 249.870816 
L 399.383698 252.213671 
L 400.259374 268.475 
L 401.135051 299.580107 
L 402.886404 379.869211 
L 403.762081 382.397929 
L 404.637757 341.272246 
L 405.513434 284.89756 
L 406.38911 239.394602 
L 407.264787 212.106972 
L 408.140463 202.524944 
L 409.01614 210.811246 
L 409.891816 240.944785 
L 410.767493 299.088179 
L 411.64317 370.520666 
L 412.518846 374.616376 
L 414.270199 205.599685 
L 415.145876 160.823638 
L 416.021552 144.397418 
L 416.897229 152.213645 
L 417.772905 197.565568 
L 418.648582 321.436138 
L 419.524259 350.027125 
L 420.399935 167.698113 
L 421.275612 97.524155 
L 422.151288 80.918325 
L 423.026965 103.989355 
L 423.902641 379.381766 
L 424.778318 46.943031 
L 425.653994 34.358755 
L 426.529671 32.837035 
L 427.405347 32.503944 
L 429.156701 32.372925 
L 437.913466 32.348587 
L 485.2 32.348515 
L 485.2 32.348515 
" style="fill:none;stroke:#ff00ff;stroke-linecap:square;stroke-width:1.5;"/>
   </g>
   <g id="line2d_14">
    <path clip-path="url(#p19789e4942)" d="M 48.2374 385.202944 
L 49.113077 370.554708 
L 51.740106 301.731197 
L 52.615783 287.754697 
L 53.491459 281.485367 
L 54.367136 283.180358 
L 55.242812 292.809497 
L 56.118489 309.931592 
L 58.745519 378.788138 
L 59.621195 387.193813 
L 60.496872 379.557813 
L 61.372548 359.040422 
L 63.123901 309.043815 
L 63.999578 290.729567 
L 64.875255 280.018961 
L 65.750931 277.464401 
L 66.626608 283.200167 
L 67.502284 297.126025 
L 68.377961 318.454651 
L 70.129314 369.763582 
L 71.00499 385.398337 
L 71.880667 384.360711 
L 72.756343 366.705548 
L 74.507697 312.10183 
L 75.383373 289.723902 
L 76.25905 275.189159 
L 77.134726 269.321881 
L 78.010403 272.348171 
L 78.886079 284.372909 
L 79.761756 305.111493 
L 81.513109 361.944534 
L 82.388786 382.978609 
L 83.264462 385.652796 
L 84.140139 367.741457 
L 86.767168 279.908797 
L 87.642845 263.157083 
L 88.518521 256.145787 
L 89.394198 259.056301 
L 90.269875 272.180239 
L 91.145551 295.628471 
L 92.896904 361.947097 
L 93.772581 384.714579 
L 94.648257 382.294803 
L 95.523934 354.627473 
L 97.275287 279.996108 
L 98.150964 254.002107 
L 99.02664 239.453484 
L 99.902317 236.34586 
L 100.777993 244.928111 
L 101.65367 266.12687 
L 102.529346 300.407903 
L 103.405023 343.59055 
L 104.280699 379.679701 
L 105.156376 383.823386 
L 106.032053 349.542452 
L 107.783406 254.917709 
L 108.659082 225.169115 
L 109.534759 210.090838 
L 110.410435 208.79409 
L 111.286112 221.946468 
L 112.161788 252.310308 
L 113.037465 302.239652 
L 113.913141 361.240427 
L 114.788818 386.695065 
L 115.664495 344.407224 
L 116.540171 273.136983 
L 117.415848 216.774332 
L 118.291524 183.680907 
L 119.167201 169.881077 
L 120.042877 173.100456 
L 120.918554 196.486798 
L 121.79423 250.361867 
L 122.669907 339.898173 
L 123.545584 384.30329 
L 125.296937 192.732172 
L 126.172613 142.046587 
L 127.04829 122.454468 
L 127.923966 124.565604 
L 128.799643 156.596261 
L 130.550996 373.246087 
L 131.426673 166.000088 
L 132.302349 88.612637 
L 133.178026 70.536546 
L 134.053702 82.827493 
L 134.929379 367.17991 
L 135.805055 47.01561 
L 136.680732 34.120669 
L 137.556408 32.757952 
L 138.432085 32.475067 
L 140.183438 32.367709 
L 150.691557 32.348538 
L 244.388948 32.449105 
L 245.264624 32.67218 
L 246.140301 33.73983 
L 247.015978 43.769218 
L 247.891654 369.776364 
L 248.767331 74.13401 
L 249.643007 63.359502 
L 250.518684 78.323743 
L 251.39436 146.9756 
L 252.270037 370.502814 
L 253.145713 243.798908 
L 254.02139 136.308454 
L 254.897067 107.855886 
L 255.772743 106.086162 
L 256.64842 123.560032 
L 257.524096 171.261753 
L 259.275449 384.845193 
L 260.151126 321.719947 
L 261.026802 221.23865 
L 261.902479 168.675802 
L 262.778156 147.484909 
L 263.653832 145.063293 
L 264.529509 158.498433 
L 265.405185 191.57095 
L 266.280862 252.427614 
L 267.156538 337.44706 
L 268.032215 387.175975 
L 268.907891 344.420459 
L 269.783568 270.067147 
L 270.659244 216.400386 
L 271.534921 186.963194 
L 272.410598 175.320038 
L 273.286274 177.725924 
L 274.161951 194.021872 
L 275.037627 226.908479 
L 275.913304 279.299872 
L 276.78898 343.794947 
L 277.664657 385.635675 
L 278.540333 368.295024 
L 280.291687 258.35642 
L 281.167363 221.458558 
L 282.04304 201.085034 
L 282.918716 194.261061 
L 283.794393 199.514139 
L 284.670069 217.352337 
L 285.545746 249.668075 
L 286.421422 297.076499 
L 287.297099 351.102162 
L 288.172776 385.423269 
L 289.048452 374.033751 
L 291.675482 238.66294 
L 292.551158 214.692243 
L 293.426835 203.533768 
L 294.302511 203.721091 
L 295.178188 215.186333 
L 296.053865 239.212249 
L 296.929541 277.254424 
L 298.680894 372.415423 
L 299.556571 386.324768 
L 300.432247 356.786784 
L 302.1836 258.568044 
L 303.059277 224.757701 
L 303.934954 204.547334 
L 304.81063 196.120696 
L 305.686307 198.483099 
L 306.561983 212.163652 
L 307.43766 239.166115 
L 308.313336 281.595998 
L 309.189013 335.848349 
L 310.064689 380.371532 
L 310.940366 379.59644 
L 311.816042 330.412721 
L 312.691719 268.611238 
L 313.567396 219.40993 
L 314.443072 187.209208 
L 315.318749 169.19255 
L 316.194425 162.678649 
L 317.070102 167.046713 
L 317.945778 184.483037 
L 318.821455 221.074235 
L 319.697131 285.94249 
L 320.572808 367.736235 
L 321.448485 370.001307 
L 323.199838 160.017124 
L 324.075514 106.618701 
L 324.951191 79.127075 
L 325.826867 64.232676 
L 326.702544 55.630058 
L 327.57822 50.38348 
L 328.453897 47.055373 
L 329.329574 44.899708 
L 330.20525 43.509999 
L 331.080927 42.658044 
L 331.956603 42.216413 
L 332.83228 42.120138 
L 333.707956 42.348343 
L 334.583633 42.917394 
L 335.459309 43.882309 
L 336.334986 45.346132 
L 337.210663 47.479447 
L 338.086339 50.555043 
L 338.962016 55.006786 
L 339.837692 61.527055 
L 340.713369 71.221147 
L 341.589045 85.826029 
L 342.464722 107.925187 
L 343.340398 140.821813 
L 344.216075 187.135449 
L 345.967428 304.054932 
L 346.843105 349.65643 
L 347.718781 375.019907 
L 348.594458 384.770643 
L 349.470134 387.032094 
L 350.345811 387.197914 
L 351.221487 387.198057 
L 352.097164 386.933448 
L 352.97284 385.744601 
L 353.848517 383.370817 
L 355.59987 377.495521 
L 356.475547 376.050263 
L 357.351223 376.60536 
L 358.2269 379.126881 
L 359.978253 386.064206 
L 360.853929 387.160967 
L 361.729606 384.682929 
L 362.605283 378.340315 
L 365.232312 350.621877 
L 366.107989 345.247291 
L 366.983665 344.25597 
L 367.859342 348.068071 
L 368.735018 356.246359 
L 370.486372 378.400236 
L 371.362048 385.907142 
L 372.237725 386.406573 
L 373.113401 378.624881 
L 373.989078 364.313305 
L 375.740431 331.650194 
L 376.616107 320.397327 
L 377.491784 315.360161 
L 378.367461 317.402279 
L 379.243137 326.611936 
L 380.118814 342.049312 
L 381.870167 378.295995 
L 382.745843 387.009541 
L 383.62152 382.06676 
L 384.497196 364.187188 
L 386.248549 315.458757 
L 387.124226 297.046274 
L 387.999903 286.92391 
L 388.875579 286.23467 
L 389.751256 295.492815 
L 390.626932 314.558791 
L 392.378285 369.313201 
L 393.253962 386.234893 
L 394.129638 380.588594 
L 395.005315 353.027944 
L 396.756668 283.257453 
L 397.632345 260.445125 
L 398.508021 249.870816 
L 399.383698 252.213671 
L 400.259374 268.475 
L 401.135051 299.580107 
L 402.886404 379.869211 
L 403.762081 382.397929 
L 404.637757 341.272246 
L 405.513434 284.89756 
L 406.38911 239.394602 
L 407.264787 212.106972 
L 408.140463 202.524944 
L 409.01614 210.811246 
L 409.891816 240.944785 
L 410.767493 299.088179 
L 411.64317 370.520666 
L 412.518846 374.616376 
L 414.270199 205.599685 
L 415.145876 160.823638 
L 416.021552 144.397418 
L 416.897229 152.213645 
L 417.772905 197.565568 
L 418.648582 321.436138 
L 419.524259 350.027125 
L 420.399935 167.698113 
L 421.275612 97.524155 
L 422.151288 80.918325 
L 423.026965 103.989355 
L 423.902641 379.381766 
L 424.778318 46.943031 
L 425.653994 34.358755 
L 426.529671 32.837035 
L 427.405347 32.503944 
L 429.156701 32.372925 
L 437.913466 32.348587 
L 485.2 32.348515 
L 485.2 32.348515 
" style="fill:none;stroke:#483d8b;stroke-dasharray:5.55,2.4;stroke-dashoffset:0;stroke-width:1.5;"/>
   </g>
   <g id="patch_3">
    <path d="M 47.8 387.2 
L 47.8 28.8 
" style="fill:none;stroke:#000000;stroke-linecap:square;stroke-linejoin:miter;stroke-width:0.8;"/>
   </g>
   <g id="patch_4">
    <path d="M 485.2 387.2 
L 485.2 28.8 
" style="fill:none;stroke:#000000;stroke-linecap:square;stroke-linejoin:miter;stroke-width:0.8;"/>
   </g>
   <g id="patch_5">
    <path d="M 47.8 387.2 
L 485.2 387.2 
" style="fill:none;stroke:#000000;stroke-linecap:square;stroke-linejoin:miter;stroke-width:0.8;"/>
   </g>
   <g id="patch_6">
    <path d="M 47.8 28.8 
L 485.2 28.8 
" style="fill:none;stroke:#000000;stroke-linecap:square;stroke-linejoin:miter;stroke-width:0.8;"/>
   </g>
   <g id="text_15">
    <!-- Reflection GaAs/Air Multilayer $θ_{inc} = 0°$ -->
    <g transform="translate(150.94 22.8)scale(0.12 -0.12)">
     <defs>
      <path id="DejaVuSans-32"/>
      <path d="M 59.515625 10.40625 
L 59.515625 29.984375 
L 43.40625 29.984375 
L 43.40625 38.09375 
L 69.28125 38.09375 
L 69.28125 6.78125 
Q 63.578125 2.734375 56.6875 0.65625 
Q 49.8125 -1.421875 42 -1.421875 
Q 24.90625 -1.421875 15.25 8.5625 
Q 5.609375 18.5625 5.609375 36.375 
Q 5.609375 54.25 15.25 64.234375 
Q 24.90625 74.21875 42 74.21875 
Q 49.125 74.21875 55.546875 72.453125 
Q 61.96875 70.703125 67.390625 67.28125 
L 67.390625 56.78125 
Q 61.921875 61.421875 55.765625 63.765625 
Q 49.609375 66.109375 42.828125 66.109375 
Q 29.4375 66.109375 22.71875 58.640625 
Q 16.015625 51.171875 16.015625 36.375 
Q 16.015625 21.625 22.71875 14.15625 
Q 29.4375 6.6875 42.828125 6.6875 
Q 48.046875 6.6875 52.140625 7.59375 
Q 56.25 8.5 59.515625 10.40625 
z
" id="DejaVuSans-71"/>
      <path d="M 34.28125 27.484375 
Q 23.390625 27.484375 19.1875 25 
Q 14.984375 22.515625 14.984375 16.5 
Q 14.984375 11.71875 18.140625 8.90625 
Q 21.296875 6.109375 26.703125 6.109375 
Q 34.1875 6.109375 38.703125 11.40625 
Q 43.21875 16.703125 43.21875 25.484375 
L 43.21875 27.484375 
z
M 52.203125 31.203125 
L 52.203125 0 
L 43.21875 0 
L 43.21875 8.296875 
Q 40.140625 3.328125 35.546875 0.953125 
Q 30.953125 -1.421875 24.3125 -1.421875 
Q 15.921875 -1.421875 10.953125 3.296875 
Q 6 8.015625 6 15.921875 
Q 6 25.140625 12.171875 29.828125 
Q 18.359375 34.515625 30.609375 34.515625 
L 43.21875 34.515625 
L 43.21875 35.40625 
Q 43.21875 41.609375 39.140625 45 
Q 35.0625 48.390625 27.6875 48.390625 
Q 23 48.390625 18.546875 47.265625 
Q 14.109375 46.140625 10.015625 43.890625 
L 10.015625 52.203125 
Q 14.9375 54.109375 19.578125 55.046875 
Q 24.21875 56 28.609375 56 
Q 40.484375 56 46.34375 49.84375 
Q 52.203125 43.703125 52.203125 31.203125 
z
" id="DejaVuSans-97"/>
      <path d="M 34.1875 63.1875 
L 20.796875 26.90625 
L 47.609375 26.90625 
z
M 28.609375 72.90625 
L 39.796875 72.90625 
L 67.578125 0 
L 57.328125 0 
L 50.6875 18.703125 
L 17.828125 18.703125 
L 11.1875 0 
L 0.78125 0 
z
" id="DejaVuSans-65"/>
      <path d="M 44.28125 53.078125 
L 44.28125 44.578125 
Q 40.484375 46.53125 36.375 47.5 
Q 32.28125 48.484375 27.875 48.484375 
Q 21.1875 48.484375 17.84375 46.4375 
Q 14.5 44.390625 14.5 40.28125 
Q 14.5 37.15625 16.890625 35.375 
Q 19.28125 33.59375 26.515625 31.984375 
L 29.59375 31.296875 
Q 39.15625 29.25 43.1875 25.515625 
Q 47.21875 21.78125 47.21875 15.09375 
Q 47.21875 7.46875 41.1875 3.015625 
Q 35.15625 -1.421875 24.609375 -1.421875 
Q 20.21875 -1.421875 15.453125 -0.5625 
Q 10.6875 0.296875 5.421875 2 
L 5.421875 11.28125 
Q 10.40625 8.6875 15.234375 7.390625 
Q 20.0625 6.109375 24.8125 6.109375 
Q 31.15625 6.109375 34.5625 8.28125 
Q 37.984375 10.453125 37.984375 14.40625 
Q 37.984375 18.0625 35.515625 20.015625 
Q 33.0625 21.96875 24.703125 23.78125 
L 21.578125 24.515625 
Q 13.234375 26.265625 9.515625 29.90625 
Q 5.8125 33.546875 5.8125 39.890625 
Q 5.8125 47.609375 11.28125 51.796875 
Q 16.75 56 26.8125 56 
Q 31.78125 56 36.171875 55.265625 
Q 40.578125 54.546875 44.28125 53.078125 
z
" id="DejaVuSans-115"/>
      <path d="M 41.109375 46.296875 
Q 39.59375 47.171875 37.8125 47.578125 
Q 36.03125 48 33.890625 48 
Q 26.265625 48 22.1875 43.046875 
Q 18.109375 38.09375 18.109375 28.8125 
L 18.109375 0 
L 9.078125 0 
L 9.078125 54.6875 
L 18.109375 54.6875 
L 18.109375 46.1875 
Q 20.953125 51.171875 25.484375 53.578125 
Q 30.03125 56 36.53125 56 
Q 37.453125 56 38.578125 55.875 
Q 39.703125 55.765625 41.0625 55.515625 
z
" id="DejaVuSans-114"/>
      <path d="M 9.8125 72.90625 
L 24.515625 72.90625 
L 43.109375 23.296875 
L 61.8125 72.90625 
L 76.515625 72.90625 
L 76.515625 0 
L 66.890625 0 
L 66.890625 64.015625 
L 48.09375 14.015625 
L 38.1875 14.015625 
L 19.390625 64.015625 
L 19.390625 0 
L 9.8125 0 
z
" id="DejaVuSans-77"/>
      <path d="M 8.5 21.578125 
L 8.5 54.6875 
L 17.484375 54.6875 
L 17.484375 21.921875 
Q 17.484375 14.15625 20.5 10.265625 
Q 23.53125 6.390625 29.59375 6.390625 
Q 36.859375 6.390625 41.078125 11.03125 
Q 45.3125 15.671875 45.3125 23.6875 
L 45.3125 54.6875 
L 54.296875 54.6875 
L 54.296875 0 
L 45.3125 0 
L 45.3125 8.40625 
Q 42.046875 3.421875 37.71875 1 
Q 33.40625 -1.421875 27.6875 -1.421875 
Q 18.265625 -1.421875 13.375 4.4375 
Q 8.5 10.296875 8.5 21.578125 
z
M 31.109375 56 
z
" id="DejaVuSans-117"/>
      <path d="M 32.171875 -5.078125 
Q 28.375 -14.84375 24.75 -17.8125 
Q 21.140625 -20.796875 15.09375 -20.796875 
L 7.90625 -20.796875 
L 7.90625 -13.28125 
L 13.1875 -13.28125 
Q 16.890625 -13.28125 18.9375 -11.515625 
Q 21 -9.765625 23.484375 -3.21875 
L 25.09375 0.875 
L 2.984375 54.6875 
L 12.5 54.6875 
L 29.59375 11.921875 
L 46.6875 54.6875 
L 56.203125 54.6875 
z
" id="DejaVuSans-121"/>
      <path d="M 45.515625 34.671875 
L 14.453125 34.671875 
Q 12.359375 20.0625 14.5 13.875 
Q 17.1875 6.25 24.46875 6.25 
Q 31.78125 6.25 37.359375 13.921875 
Q 42.234375 20.65625 45.515625 34.671875 
z
M 47.015625 42.96875 
Q 48.34375 56.84375 46.625 61.71875 
Q 43.953125 69.4375 36.765625 69.4375 
Q 29.296875 69.4375 23.828125 61.8125 
Q 19.53125 55.671875 16.15625 42.96875 
z
M 38.1875 76.765625 
Q 49.90625 76.765625 54.59375 66.40625 
Q 59.28125 56.109375 55.71875 37.84375 
Q 52.203125 19.625 43.453125 9.28125 
Q 34.765625 -1.125 23.046875 -1.125 
Q 11.28125 -1.125 6.640625 9.28125 
Q 2 19.625 5.515625 37.84375 
Q 9.078125 56.109375 17.71875 66.40625 
Q 26.421875 76.765625 38.1875 76.765625 
z
" id="DejaVuSans-Oblique-952"/>
      <path d="M 18.3125 75.984375 
L 27.296875 75.984375 
L 25.09375 64.59375 
L 16.109375 64.59375 
z
M 14.203125 54.6875 
L 23.1875 54.6875 
L 12.5 0 
L 3.515625 0 
z
" id="DejaVuSans-Oblique-105"/>
      <path d="M 55.71875 33.015625 
L 49.3125 0 
L 40.28125 0 
L 46.6875 32.671875 
Q 47.125 34.96875 47.359375 36.71875 
Q 47.609375 38.484375 47.609375 39.5 
Q 47.609375 43.609375 45.015625 45.890625 
Q 42.4375 48.1875 37.796875 48.1875 
Q 30.5625 48.1875 25.34375 43.375 
Q 20.125 38.578125 18.5 30.328125 
L 12.5 0 
L 3.515625 0 
L 14.109375 54.6875 
L 23.09375 54.6875 
L 21.296875 46.09375 
Q 25.046875 50.828125 30.3125 53.40625 
Q 35.59375 56 41.40625 56 
Q 48.640625 56 52.609375 52.09375 
Q 56.59375 48.1875 56.59375 41.109375 
Q 56.59375 39.359375 56.375 37.359375 
Q 56.15625 35.359375 55.71875 33.015625 
z
" id="DejaVuSans-Oblique-110"/>
      <path d="M 10.59375 45.40625 
L 73.1875 45.40625 
L 73.1875 37.203125 
L 10.59375 37.203125 
z
M 10.59375 25.484375 
L 73.1875 25.484375 
L 73.1875 17.1875 
L 10.59375 17.1875 
z
" id="DejaVuSans-61"/>
      <path d="M 25 67.921875 
Q 21.09375 67.921875 18.40625 65.203125 
Q 15.71875 62.5 15.71875 58.59375 
Q 15.71875 54.734375 18.40625 52.078125 
Q 21.09375 49.421875 25 49.421875 
Q 28.90625 49.421875 31.59375 52.078125 
Q 34.28125 54.734375 34.28125 58.59375 
Q 34.28125 62.453125 31.5625 65.1875 
Q 28.859375 67.921875 25 67.921875 
z
M 25 74.21875 
Q 28.125 74.21875 31 73.015625 
Q 33.890625 71.828125 35.984375 69.578125 
Q 38.234375 67.390625 39.359375 64.59375 
Q 40.484375 61.8125 40.484375 58.59375 
Q 40.484375 52.15625 35.96875 47.6875 
Q 31.453125 43.21875 24.90625 43.21875 
Q 18.3125 43.21875 13.90625 47.609375 
Q 9.515625 52 9.515625 58.59375 
Q 9.515625 65.140625 14 69.671875 
Q 18.5 74.21875 25 74.21875 
z
" id="DejaVuSans-176"/>
     </defs>
     <use transform="translate(0 0.234375)" xlink:href="#DejaVuSans-82"/>
     <use transform="translate(69.482422 0.234375)" xlink:href="#DejaVuSans-101"/>
     <use transform="translate(131.005859 0.234375)" xlink:href="#DejaVuSans-102"/>
     <use transform="translate(166.210938 0.234375)" xlink:href="#DejaVuSans-108"/>
     <use transform="translate(193.994141 0.234375)" xlink:href="#DejaVuSans-101"/>
     <use transform="translate(255.517578 0.234375)" xlink:href="#DejaVuSans-99"/>
     <use transform="translate(310.498047 0.234375)" xlink:href="#DejaVuSans-116"/>
     <use transform="translate(349.707031 0.234375)" xlink:href="#DejaVuSans-105"/>
     <use transform="translate(377.490234 0.234375)" xlink:href="#DejaVuSans-111"/>
     <use transform="translate(438.671875 0.234375)" xlink:href="#DejaVuSans-110"/>
     <use transform="translate(502.050781 0.234375)" xlink:href="#DejaVuSans-32"/>
     <use transform="translate(533.837891 0.234375)" xlink:href="#DejaVuSans-71"/>
     <use transform="translate(611.328125 0.234375)" xlink:href="#DejaVuSans-97"/>
     <use transform="translate(672.607422 0.234375)" xlink:href="#DejaVuSans-65"/>
     <use transform="translate(741.015625 0.234375)" xlink:href="#DejaVuSans-115"/>
     <use transform="translate(793.115234 0.234375)" xlink:href="#DejaVuSans-47"/>
     <use transform="translate(826.806641 0.234375)" xlink:href="#DejaVuSans-65"/>
     <use transform="translate(895.214844 0.234375)" xlink:href="#DejaVuSans-105"/>
     <use transform="translate(922.998047 0.234375)" xlink:href="#DejaVuSans-114"/>
     <use transform="translate(964.111328 0.234375)" xlink:href="#DejaVuSans-32"/>
     <use transform="translate(995.898438 0.234375)" xlink:href="#DejaVuSans-77"/>
     <use transform="translate(1082.177734 0.234375)" xlink:href="#DejaVuSans-117"/>
     <use transform="translate(1145.556641 0.234375)" xlink:href="#DejaVuSans-108"/>
     <use transform="translate(1173.339844 0.234375)" xlink:href="#DejaVuSans-116"/>
     <use transform="translate(1212.548828 0.234375)" xlink:href="#DejaVuSans-105"/>
     <use transform="translate(1240.332031 0.234375)" xlink:href="#DejaVuSans-108"/>
     <use transform="translate(1268.115234 0.234375)" xlink:href="#DejaVuSans-97"/>
     <use transform="translate(1329.394531 0.234375)" xlink:href="#DejaVuSans-121"/>
     <use transform="translate(1388.574219 0.234375)" xlink:href="#DejaVuSans-101"/>
     <use transform="translate(1450.097656 0.234375)" xlink:href="#DejaVuSans-114"/>
     <use transform="translate(1491.210938 0.234375)" xlink:href="#DejaVuSans-32"/>
     <use transform="translate(1522.998047 0.234375)" xlink:href="#DejaVuSans-Oblique-952"/>
     <use transform="translate(1584.179688 -16.171875)scale(0.7)" xlink:href="#DejaVuSans-Oblique-105"/>
     <use transform="translate(1603.62793 -16.171875)scale(0.7)" xlink:href="#DejaVuSans-Oblique-110"/>
     <use transform="translate(1647.993164 -16.171875)scale(0.7)" xlink:href="#DejaVuSans-Oblique-99"/>
     <use transform="translate(1708.696289 0.234375)" xlink:href="#DejaVuSans-61"/>
     <use transform="translate(1811.967773 0.234375)" xlink:href="#DejaVuSans-48"/>
     <use transform="translate(1875.59082 0.234375)" xlink:href="#DejaVuSans-176"/>
    </g>
   </g>
   <g id="legend_1">
    <g id="patch_7">
     <path d="M 431.464063 66.15625 
L 478.2 66.15625 
Q 480.2 66.15625 480.2 64.15625 
L 480.2 35.8 
Q 480.2 33.8 478.2 33.8 
L 431.464063 33.8 
Q 429.464063 33.8 429.464063 35.8 
L 429.464063 64.15625 
Q 429.464063 66.15625 431.464063 66.15625 
z
" style="fill:#ffffff;opacity:0.8;stroke:#cccccc;stroke-linejoin:miter;"/>
    </g>
    <g id="line2d_15">
     <path d="M 433.464063 41.898438 
L 453.464063 41.898438 
" style="fill:none;stroke:#ff00ff;stroke-linecap:square;stroke-width:1.5;"/>
    </g>
    <g id="line2d_16"/>
    <g id="text_16">
     <!-- TM -->
     <g transform="translate(461.464063 45.398438)scale(0.1 -0.1)">
      <defs>
       <path d="M -0.296875 72.90625 
L 61.375 72.90625 
L 61.375 64.59375 
L 35.5 64.59375 
L 35.5 0 
L 25.59375 0 
L 25.59375 64.59375 
L -0.296875 64.59375 
z
" id="DejaVuSans-84"/>
      </defs>
      <use xlink:href="#DejaVuSans-84"/>
      <use x="61.083984" xlink:href="#DejaVuSans-77"/>
     </g>
    </g>
    <g id="line2d_17">
     <path d="M 433.464063 56.576563 
L 453.464063 56.576563 
" style="fill:none;stroke:#483d8b;stroke-dasharray:5.55,2.4;stroke-dashoffset:0;stroke-width:1.5;"/>
    </g>
    <g id="line2d_18"/>
    <g id="text_17">
     <!-- TE -->
     <g transform="translate(461.464063 60.076563)scale(0.1 -0.1)">
      <defs>
       <path d="M 9.8125 72.90625 
L 55.90625 72.90625 
L 55.90625 64.59375 
L 19.671875 64.59375 
L 19.671875 43.015625 
L 54.390625 43.015625 
L 54.390625 34.71875 
L 19.671875 34.71875 
L 19.671875 8.296875 
L 56.78125 8.296875 
L 56.78125 0 
L 9.8125 0 
z
" id="DejaVuSans-69"/>
      </defs>
      <use xlink:href="#DejaVuSans-84"/>
      <use x="61.083984" xlink:href="#DejaVuSans-69"/>
     </g>
    </g>
   </g>
  </g>
 </g>
 <defs>
  <clipPath id="p19789e4942">
   <rect height="358.4" width="437.4" x="47.8" y="28.8"/>
  </clipPath>
 </defs>
</svg>
